/* XPM */
static char *_720910c35d94e58cecdcb6d28dcca3dq4qQR8TFcGtUi436[] = {
/* columns rows colors chars-per-pixel */
"64 64 64 1 ",
"  c #492A36",
". c #4E2E39",
"X c #502E39",
"o c #53323B",
"O c #5C363F",
"+ c #5D383F",
"@ c #5C3740",
"# c #5F3840",
"$ c #633D43",
"% c #683F44",
"& c #654046",
"* c #6B4246",
"= c #664449",
"- c #6D464A",
"; c #6D494C",
": c #714648",
"> c #734A4C",
", c #794D4D",
"< c #7C504F",
"1 c #6E4F50",
"2 c #744F50",
"3 c #794F51",
"4 c #775151",
"5 c #7E5251",
"6 c #795453",
"7 c #7A5354",
"8 c #7C5455",
"9 c #7D5656",
"0 c #7F5957",
"q c #815553",
"w c #825655",
"e c #805857",
"r c #835957",
"t c #855C57",
"y c #835B59",
"u c #855B5A",
"i c #865D5B",
"p c #875E5B",
"a c #885D5A",
"s c #895F5C",
"d c #82605B",
"f c #85635E",
"g c #8A605D",
"h c #8C615E",
"j c #876761",
"k c #8E6360",
"l c #8F6561",
"z c #8D6B64",
"x c #8E6F66",
"c c #906762",
"v c #916863",
"b c #926A64",
"n c #946D66",
"m c #8F7066",
"M c #917167",
"N c #967168",
"B c #977369",
"V c #99766B",
"C c #99776C",
"Z c #9B796D",
"A c #9C7B6F",
"S c #9C7C6F",
"D c #9D7D70",
"F c #A08072",
/* pixels */
".   O++#&======o  .=111111>>>>>>>,699999999999999#ooo&==&#++o   ",
"                          X#####################+X              ",
"                          X#####################+X              ",
"    ......................o$$$$###$$$$$$$$$$$$$$$o..........    ",
"o  .%**:9999999999999999994:::$##$4yyyyyyyyyyyyyy99999994-**+   ",
"O  .:,,5hllllllllllllllllli,,,*##$yllllllllllllllllllllls,,,%   ",
"O  .:,,5hllllllllllllllllli,,,*##$yllllllllllllllllllllls,,,%   ",
"O  X><<qhllllllllllllllllla<<<*##$ylllllllllllllllllllllg5<<&   ",
"#  oehhhllllllllllllllllllkhhh>##$yllllllllllllllllllllllhhh;   ",
"#  oylllllllllllllllllllllllll>##$ylllllllllllllllllllllllll>   ",
"#  oylllllllllllllllllllllllll>##$ylllllllllllllllllllllllll>   ",
"&X.Oilllllllllllllllllllllllll3%%*ulllllllllllllllllllllllll>XXX",
"-++$illlllllllllllllllllllllllw,,,alllllllllllllllllllllllll4+++",
"-##$illlllllllllllllllllllllllw,,,alllllllllllllllllllllllll4###",
"-##$illlllllllllllllllllllllllw,,,alllllllllllllllllllllllll4###",
"-##$illvNNNNNNNNNNNNNNNNNNnlll>$$%yllcNNNNNNNNNNNbllcNNNNNNN0###",
"-##$illbDFFFFFFFFFFFFFFFFFVlll=  .9llvSFFFFFFFFFDnllvAFFFFFFf###",
"-##$illbDFFFFFFFFFFFFFFFFFVlll=  .9llvSFFFFFFFFFDnllvAFFFFFFf###",
"-++$illbSDDDSSSSSSSDDDDDDDNhhh=  .7hhlZDDDDDDSSSAbhhlZSSSDDDd+++",
"&XXo>qqwtii4=======>222222;###o   @##$>222222;===&##$===;eii;XXX",
"#  .:,,,,,,%       O######o          .+######o          o>,,%   ",
"#  .:,,,,,,%       O######o          .+######o          o>,,%   ",
"#  .:,,,,,,*ooo.   #$$$$$$#ooooooooooo$$$$$$$#ooo.   ooo#,,,$   ",
"#  owggggggiyyy#  .7iiiiiiiyyyyyyyyyyyiiiiiiiiyyy#  o4yyiggg;   ",
"#  oyllllllllll&  oyllllllllllllllllllllllllllllh$  oyllllll>   ",
"#  oyllllllllll&  oyllllllllllllllllllllllllllllh$  oyllllll>   ",
"$..oullllllllll=..oyllllllllllllllllllllllllllllh*oo#illllll>...",
"-++%illllllllll>++$ulllllllllllllllllllllllllllll5>>,gllllll4+++",
"-##$illllllllll>##%illlllllllllllllllllllllllllllq,,,gllclll4##$",
"-##$illllllllll>##%illlllllllllllllllllllllllllllq,,,gllclll4##$",
"-##$illllllllll>**-illlllllllllllllllllllllllllllq,,,gllllll4###",
"-##$illllllllllw,,,glllllllllllllllllllllllllllllq,,,gllllll4###",
"-##$illllllllllw,,,glllllllllllllllllllllllllllllq,,,gllllll4###",
"-##$illllllllllw,,,glllllllllllllllllllllllllllllq,,,gllllll4###",
"-##$illllllllllw,,,gllllllllllllllllllllllllllllk,**-sllllll4###",
"-##$illllllllllw,,,gllllllllllllllllllllllllllllh-##$illllll4#$#",
"-##$illllllllllw,,,gllllllllllllllllllllllllllllh-##$illllll4###",
"-##$illllllllll5>>,gccccccccccccccccccccccccccccl-++$illllll4###",
"-##$illllllllll=ooOxAAAAAAAAAAAAAAAAAAAAAAAAAAAAC=..oyllllll4###",
"-##$illllllllll&  oxFFFFFFFFFFFFFFFFFFFFFFFFFFFFS=  oyllllll4###",
"-##$illllllllll&  oxFFFFFFFFFFFFFFFFFFFFFFFFFFFFS=  oyllllll4###",
"-##%9iiiiiiuyyy#  ofNNNNNNMmmmmmmMNVVVVVVNNNNMmmx&  o4yyyiii>###",
"-###$%%%%%%#ooo.   $&&&&&&#ooooooo:555555>&&&#ooo.   .ooo$%%$###",
"-##########o       O######o      .*,,,,,,:$##o          .+######",
"-##########o       O######o      .*,,,,,,:$##o          .+######",
"-##$-::::::=$$$$$$&-::::::*OOOX  .>qqqqqq4>::*$$$$$$$$$$$$%%%###",
"-##$illlllllkkkkkkklllllllu,,,+  .9lllllllllllkkkkkkkkkka,,,*###",
"-##$illllllllllllllllllllli,,,+  .9llllllllllllllllllllls,,,*###",
"-##$illllllllllllllllllllli,,,+  .9llllllllllllllllllllls,,,*###",
"-##$illlllllllllllllllllllgeee:$$%ylllllllllllllllllllllhuee,###",
"-##$illlllllllllllllllllllllllw,,,alllllllllllllllllllllllll4###",
"-##$illlllllllllllllllllllllllw,,,alllllllllllllllllllllllll4###",
"-++$illlllllllllllllllllllllllw>>,alllllllllllllllllllllllll4+++",
"$..oulllllllllllllllllllllllll3%%*ulllllllllllllllllllllllll>...",
"#  oylllllllllllllllllllllllll>##$ylllllllllllllllllllllllll>   ",
"#  oylllllllllllllllllllllllll>##$ylllllllllllllllllllllllll>   ",
"#  owgghlllllllcvvvvvvvlllllll4**-ivvvvvvvvvvvvvvvvvvllllggg;   ",
"O  .:,,qhllllllNSSSSSSCcllllllnNNNZSSSSSSSSSSSSSSSSSZvlls5,,$   ",
"O  .:,,5hllllllVFFFFFFAvllllllVFFFFFFFFFFFFFFFFFFFFFDblls,,,%   ",
"O  .:,,5hllllllVFFFFFFAvllllllVFFFFFFFFFFFFFFFFFFFFFDblls,,,%   ",
"o  .%**-4999999fzzzjjjf9999eeefzzzzzzzzzzzzzzzzzzjjjf9994***+   ",
"     ..........O$$$o......o$$$$$$$$$$$$$$$$$$$$$$o..........    ",
"               o##+.      X#####################+X              ",
"               o##+.      X#####################+X              "
};
