/* XPM */
static char *_c9ebd026e6947feb13fd788736070a7cSU0Bqx8IebIZhWa[] = {
/* columns rows colors chars-per-pixel */
"16 16 2 1 ",
"  c #645A3A",
". c #796B44",
/* pixels */
"   .............",
"  ............. ",
" .............. ",
" .............. ",
"................",
"................",
"..............  ",
"  ...........   ",
"............... ",
"..............  ",
"................",
"................",
"................",
" .............. ",
"  ............  ",
" ..............."
};
