/* XPM */
static char *Untitled_design__6_1713542021[] = {
/* columns rows colors chars-per-pixel */
"64 64 186 2 ",
"   c #23131E",
".  c #2B161F",
"X  c #341A1F",
"o  c #251420",
"O  c #281721",
"+  c #2B1922",
"@  c #321C24",
"#  c #391C21",
"$  c #331F29",
"%  c #362023",
"&  c #3E2627",
"*  c #36222A",
"=  c #3B252C",
"-  c #3D282F",
";  c #382731",
":  c #3A2A31",
">  c #362831",
",  c #3F3037",
"<  c #3F3239",
"1  c #442223",
"2  c #4B2525",
"3  c #4A2927",
"4  c #41262B",
"5  c #452A2E",
"6  c #4C2A2B",
"7  c #53342F",
"8  c #432631",
"9  c #442C33",
"0  c #4A2A37",
"q  c #4C2C39",
"w  c #502F38",
"e  c #4B3137",
"r  c #44343B",
"t  c #4D323A",
"y  c #48353B",
"u  c #543530",
"i  c #5B3B32",
"p  c #54333C",
"a  c #5A373E",
"s  c #55393D",
"d  c #5B3A3F",
"f  c #6E342A",
"g  c #61302B",
"h  c #75362B",
"j  c #7C3A2C",
"k  c #60373F",
"l  c #60393E",
"z  c #6F4839",
"x  c #7D423A",
"c  c #764C3E",
"v  c #7B513F",
"b  c #4C3A42",
"n  c #573742",
"m  c #5A3741",
"M  c #563A41",
"N  c #5E3A41",
"B  c #543F48",
"V  c #613940",
"C  c #683F44",
"Z  c #524247",
"A  c #5F4143",
"S  c #57444A",
"D  c #59444A",
"F  c #5B494E",
"G  c #5F4E51",
"H  c #644446",
"J  c #6A4247",
"K  c #634548",
"L  c #694549",
"P  c #6D494B",
"I  c #67494A",
"U  c #704647",
"Y  c #714748",
"T  c #744B4B",
"R  c #784C4B",
"E  c #72504F",
"W  c #624D52",
"Q  c #734E50",
"!  c #655558",
"~  c #6A555B",
"^  c #6C5B5D",
"/  c #645457",
"(  c #775252",
")  c #7C5454",
"_  c #7E5857",
"`  c #7F5958",
"'  c #735B61",
"]  c #7D5F6C",
"[  c #7E606C",
"{  c #7A696A",
"}  c #7E706F",
"|  c #823C2E",
" . c #87402E",
".. c #8B412F",
"X. c #8D4532",
"o. c #87473C",
"O. c #964631",
"+. c #984732",
"@. c #9D4E37",
"#. c #81543F",
"$. c #9D513A",
"%. c #90543C",
"&. c #A3573D",
"*. c #875A42",
"=. c #8D5E44",
"-. c #845740",
";. c #965142",
":. c #965B45",
">. c #815554",
",. c #815956",
"<. c #815758",
"1. c #855B5A",
"2. c #895E5C",
"3. c #945D56",
"4. c #A65F41",
"5. c #986749",
"6. c #9E6A4A",
"7. c #87615C",
"8. c #8C635F",
"9. c #91655E",
"0. c #996E5E",
"q. c #9F705C",
"w. c #AB6947",
"e. c #A46E4D",
"r. c #AA6647",
"t. c #AE724E",
"y. c #B1744E",
"u. c #AC7756",
"i. c #A0705C",
"p. c #A97358",
"a. c #B37651",
"s. c #B67B53",
"d. c #B87A53",
"f. c #8E6561",
"g. c #8D6860",
"h. c #81646D",
"j. c #82666B",
"k. c #906662",
"l. c #926A63",
"z. c #917067",
"x. c #96766B",
"c. c #9A756C",
"v. c #9A786E",
"b. c #816571",
"n. c #866B73",
"m. c #8B6F76",
"M. c #8B7077",
"N. c #8C7278",
"B. c #8E7B7B",
"V. c #937476",
"C. c #9E7C70",
"Z. c #91767B",
"A. c #93787D",
"S. c #987E7F",
"D. c #9E8173",
"F. c #A08073",
"G. c #967C80",
"H. c #987D82",
"J. c #958281",
"K. c #9B8385",
"L. c #998A87",
"P. c #9F8689",
"I. c #9C8C89",
"U. c #A38B8B",
"Y. c #A79291",
"T. c #AC9694",
"R. c #AD9996",
"E. c #AD9A98",
"W. c #B19C99",
"Q. c #B4A39D",
"!. c #B8A39E",
"~. c #B7A6A0",
"^. c #B9A6A2",
"/. c #BBABA4",
"(. c #BCADA8",
"). c #C1AFA8",
"_. c #C2B1AA",
"`. c #C8B7AF",
"'. c #C6B8AF",
"]. c #C9B8AE",
"[. c #C7B9B0",
"{. c #CBBBB3",
"}. c #CFC1B8",
"|. c #CFC1B6",
" X c #D3C5BA",
".X c #D0C2B7",
/* pixels */
"0 0 0 q 0 q q q q q q w w w p V V C V V C V V C V V V V V V V V V V V C C m w w t w w w p a V V a w w w w w w w q q q q q 0 0 0 ",
"0 0 0 0 0 0 0 0 0 0 0 q 0 0 w a V l V V V V V V V N V V V V V V V V V V m m 0 0 0 0 0 0 0 p V V a q 0 0 0 q 0 0 0 0 0 0 0 0 0 0 ",
"0 0 0 0 0 0 q q 0 0 0 q 0 0 w m l l V V V V V V V V V V V V N N V V V V m a 0 0 q 0 0 0 0 p V V a q 0 0 q 0 q q 0 0 0 q 0 0 0 0 ",
"q 0 0 q p w p p a s p 8 4 8 8 w q p q q q w V J C J J J C L C C P C L C C V m m p m p n a V J J J N p a s m p p p s w p q 0 0 0 ",
"0 0 0 V Y T T 1.2.2.( $ o o O O O O O O O O A f.f.2.2.f.2.2.f.2.8.2.f.2.8.2.2.2.2.2.2.2.2.2.f.2.2.2.2.2.2.2.8.2.>.T T T V 0 0 0 ",
"0 0 0 C R R R 7.f.k.>.$ o           o       A f.f.f.f.f.f.f.f.f.f.f.f.f.k.k.f.f.f.f.f.f.f.f.f.f.f.f.f.f.f.f.f.f.2.R T R V q q 0 ",
"q 0 0 C R R R 2.f.f._ $ o                   N f.f.f.f.f.f.f.f.f.f.f.f.f.f.f.f.f.f.f.f.f.f.f.f.f.f.f.f.f.f.f.f.f.2.R R R V 0 0 0 ",
"0 0 0 J >.>.>.P H I L D D D F W / / G S S S K I I L 1.f.f.f.f.f.f.f.f.f.f.f.f.f.f.f.f.f.f.f.f.f.k.f.f.f.f.f.8.f.2.>.>.>.J 0 0 0 ",
"0 0 q Q 8.8.1.-     > D.T.Y.Q.}..X|._.T.Y.T.G   o + T f.f.f.f.f.f.f.f.f.f.f.f.f.f.f.f.f.f.f.f.f.f.f.f.f.f.f.f.f.k.k.f.8.P 0 0 0 ",
"0 0 q Q g.8.2.;     > K.E.T.~.}. X X_.T.T.T.G   o + P f.f.f.f.f.f.f.f.f.f.f.f.f.f.f.f.f.f.f.f.f.f.f.f.f.f.f.f.f.k.8.f.f.P 0 0 0 ",
"0 0 q T g.f.2.;     ; K.R.R.~.}. X X_.T.T.T.G     O P f.f.f.g.f.f.f.f.f.f.f.f.f.f.f.f.f.f.f.f.f.f.f.f.f.f.f.f.f.f.f.f.f.P 0 0 0 ",
"w w p ( f.f.2.-     : R.).).).(._._.!.R.R.T.J.} } } W s M A 1.f.f.f.f.f.f.f.f.f.f.f.f.f.f.f.f.f.f.f.f.f.f.f.f.f.f.f.f.f.P 0 0 0 ",
"V V V ) f.f.1.;     , /. X X{.R.R.T.R.T.T.T._. X X[.S     $ _ f.f.f.f.f.f.f.f.f.f.f.f.f.f.f.f.f.f.f.f.f.f.f.f.f.f.f.f.f.P 0 0 0 ",
"V V V ) f.f.1.;     , /. X X{.R.T.T.T.T.R.T._. X X[.S o   * ) f.f.f.f.f.f.f.f.f.f.f.f.f.f.f.f.f.f.f.f.f.f.f.f.f.f.f.f.f.P 0 0 0 ",
"m V V ) f.f.1.=     9 /. X X].R.T.T.T.T.T.T.(. X|.[.F + + * ( 8.8.8.f.f.f.f.f.f.f.f.f.f.f.f.f.f.f.f.f.f.f.f.f.f.f.f.f.f.P 0 0 0 ",
"V V V ) f.f.f.> o   9 /. X X{.R.T.R.T.T.T.T.T.Y.Y.Y.I.L.L.B.M r 9 n 2.f.f.f.f.f.f.f.f.f.f.f.f.f.k.f.f.f.f.f.f.f.f.f.f.f.P 0 0 0 ",
"V V V ) 8.k.2.;     r /..X X{.E.T.T.T.T.T.T.P.A.A.H.). X X(.<     = 1.8.f.f.f.f.f.f.f.f.f.f.f.g.f.f.f.f.f.f.f.f.f.f.f.f.P 0 0 0 ",
"V V V ) 8.k.2.=     , /..X X[.R.T.T.T.T.T.T.P.A.A.H.). X X/.<     > 1.f.f.f.f.f.f.f.f.f.f.f.f.8.f.f.f.f.f.f.f.f.f.f.f.f.P q 0 q ",
"a a a ) f.f.2.0 $ + r E._._./.Q.W.W.R.T.Y.T.P.A.A.H.^.{.{.^.b $ $ , _ 1.1.2.8.f.f.8.2.<.2.,.1.1.<.f.f.f.f.f.f.f.f.f.f.f.P 0 0 0 ",
"0 0 w Q f.k.8._ ) ) E y r r ^ _.{.|.!.H.S.H.A.Z.A.A.H.U.U.K.G.G.D.{ 9 * * M f.f.8.A * * * * * * 8 <.f.f.f.f.f.f.f.f.f.f.P 0 0 0 ",
"0 0 0 Q f.f.f.8.f.f.` $     Z [. X X^.Z.A.A.A.Z.A.A.A.A.Z.G.Y.T.E.B.+     e f.f.f.s             + _ f.f.f.f.f.f.f.f.k.f.P q 0 0 ",
"0 q 0 Q f.f.f.k.k.g.` $     Z [. X X^.Z.A.A.A.A.A.A.A.A.A.G.Y.T.T.G.$     e 8.f.f.s             $ ) f.8.f.f.f.f.f.f.f.f.I q 0 0 ",
"0 0 q Q f.k.f.f.g.8.` 9 * * S T.!.Q.Y.U.K.U.H.A.Z.A.Z.Z.A.A.U.U.U.N., > ; s ( _ _ t       % & & 5 P ) _ ` 8.f.f.f.f.f.f.I 0 0 0 ",
"0 0 0 T f.f.f.f.g.8.8.1.` ` E : > > { {.{.{.R.A.G.A.A.G.A.Z.n.b.b.} n.n.n.W $ + @ +     . v e.e.5.5 $ + 8 7.f.f.f.f.f.f.P 0 0 0 ",
"0 0 0 Q k.f.f.k.8.f.f.f.f.f.T +     ^  X X XE.A.A.A.A.A.A.Z.b.] [ b.Z.G.Z.~ o o         . #.s.s.e.1     * <.f.f.f.f.f.f.P 0 0 0 ",
"0 0 0 Q f.f.f.f.f.f.f.f.f.f.Q +     ^  X X XE.A.A.G.Z.A.A.N.b.] [ b.N.G.Z.~ o o         + #.d.s.e.4     * <.f.f.f.f.f.f.P 0 0 0 ",
"w q q Q f.f.f.f.f.f.f.f.f.f._ e 9 e ~ I.I.I.K.K.H.K.N.N.M.m.b.] [ [ M.M.M.' y b y 3 1 1 3 =.s.s.e.&     * 1.f.f.f.f.f.f.P 0 0 0 ",
"V V N ( f.f.f.f.f.f.f.f.f.f.f.8.8.8.D + + + ' R.R.Y.M.h.h.] ] ] [ [ [ [ h.b.M.M.M.3.O.O.O.w.s.s.e.4     * ,.f.f.f.f.f.f.P 0 0 0 ",
"V V m ) k.k.f.f.f.k.8.k.f.f.f.f.8.f.A       ' R.R.T.m.] ] [ h.] ] ] ] ] ] n.A.A.A.9.O.O.+.w.d.F.e.&     * 1.f.f.f.f.f.k.L 0 0 q ",
"V V k ) k.8.f.f.f.f.g.k.f.f.f.f.f.f.K       ^ R.T.T.m.] ] [ ] ] ] ] ] ] ] b.A.A.B.9.O.O.+.w.d.y.e.4     * 1.f.f.f.f.f.f.P 0 0 0 ",
"m k k ) f.f.f.f.f.f.8.k.f.f.f.f.f.f.( d s s W ~ ~ ' h.n.n.n.h.] ] h.] h.h.b.n.n.z.5.4.4.4.y.d.d.e.&     = <.f.f.f.f.f.f.L 0 0 0 ",
"V V k ) f.f.f.f.f.f.f.8.f.f.f.f.f.f.f.f.f.f.s     O ' A.G.N.b.] ] ] ] ] ] ] ] h.7.t.d.y.d.d.d.F.e.3     $ <.f.f.f.f.f.k.P q 0 0 ",
"V V V ) f.f.f.f.f.f.f.f.f.f.f.f.f.f.k.f.f.f.s     + ' Z.A.A.[ [ ] ] ] [ ] [ h.] [ 0.s.s.s.s.s.s.e.&     = ,.f.g.f.f.f.f.P 0 0 0 ",
"V V V ( f.f.f.f.f.f.f.f.f.f.f.f.f.f.f.f.f.8.s o o @ ^ Z.A.N.b.[ [ ] ] ] [ [ ] ] ] 0.s.s.s.s.a.a.e.&     * <.f.f.f.f.f.f.P q 0 0 ",
"k V V ) f.f.f.f.f.f.f.f.f.f.f.f.9.f.f.f.f.f.( K I J B b b B h.M.m.n.h.] ] f.i.i.q.u.s.s.s.v i i i H I H P 8.f.f.f.f.f.f.P 0 0 0 ",
"k V l ) f.f.f.f.f.f.f.f.f.f.f.f.k.f.f.f.8.k.f.f.f.2.:   o $ h.Z.A.N.h.] [ k.s.s.s.d.s.s.u.7     @ ) 8.k.f.f.f.f.f.f.f.f.P 0 0 0 ",
"V V V ) f.f.f.f.8.k.8.k.f.f.f.f.f.f.f.f.f.f.f.f.f.2.: o   * { Z.A.V.h.] [ l.s.s.s.s.s.s.y.7     $ ) 8.g.f.f.f.k.f.f.f.f.I 0 0 0 ",
"m k V ) f.f.f.f.k.f.f.f.f.f.f.f.f.f.f.f.f.f.8.2.1.` :     $ h.V.V.m.j.h.[ l.s.s.s.s.a.s.t.7     + ) f.f.f.f.f.f.f.f.f.f.P q 0 0 ",
"k V k ) f.f.f.f.f.f.f.f.f.f.k.8.f.f.f.f.f.f.K = = * +     @ o.%.;.;.p.p.p.u.s.s.s.w.$.$.$.3     % ) f.f.f.f.f.f.f.f.f.f.P 0 0 0 ",
"V V V ) f.f.f.f.f.f.f.f.f.f.f.k.f.f.f.f.8.8.s     o       X | O.O.&.a.s.s.s.s.s.d.&.O.O.O.2     + ` f.f.f.f.f.f.f.f.f.f.P 0 0 0 ",
"m k V ( f.f.f.f.f.f.f.f.f.f.f.8.f.f.8.f.f.f.s             + | O.O.@.a.d.s.d.s.s.s.r.O.O.O.2     + _ f.f.k.f.f.f.f.f.f.f.P 0 0 0 ",
"V V V ) k.f.f.f.f.k.f.f.f.f.f.f.f.f.f.f.f.f.s       # & * 3 X.@.@.&.a.d.s.t.6.6.6.%.| | | 2 X X 4 P ` ` <.8.f.f.f.f.f.f.P 0 0 0 ",
"V V k ) f.f.f.f.f.f.8.f.f.f.f.f.k.f.f.f.8.8.s     . v e.e.e.t.y.y.y.s.s.s.*.& % # # # @ X f ..| j 4 % + 9 2.f.f.k.f.f.f.P 0 0 0 ",
"k V V ) f.f.f.f.f.f.f.f.f.f.f.f.f.f.f.f.g.8.s     + =.s.s.s.s.s.d.s.s.s.s.#.              h +.+.| X     * ` f.f.f.f.f.f.P 0 0 0 ",
"V k m ) f.f.f.f.f.k.f.f.k.k.8.k.f.9.k.9.8.f.s     + =.s.s.s.d.d.s.s.s.s.s.#..       o     h +.+.O.X     * ,.f.g.k.k.8.k.P 0 0 0 ",
"V V V ) f.f.f.f.f.f.f.f.f.k.2.2.2.2.2.2.7.2.d * = & c =.=.=.=.=.=.=.=.=.=.z * * * = * * = g h h h 2 1 1 6 U P E ) 8.f.k.P 0 0 0 ",
"V k k ) f.f.f.f.f.f.f.f.f.f.2.>.R R R R R R R T Y U - . . . . . + + . + + 5 T T P T U T U 4 . . X j O.| j @ O o q 2.f.8.L 0 0 0 ",
"V V V ) f.f.f.f.f.f.f.k.8.f.2.R R R R R R R R R R T &     .     o         5 R R R R R R T 4     X | +.+.| + o o 0 f.f.f.P q 0 0 ",
"k V m ) f.f.f.f.f.8.8.k.k.8.2.R R R R R R R R R R U 1                     5 R R R R R R T 4     X | O.+.| @     5 8.8.k.P 0 0 0 ",
"V V V ) f.k.f.f.f.k.8.2.1.2.>.R R R R R R R Y R R R p 8 5 0 8 0 0 6 5 5 0 p R R T R T R R a 8 0 0 x o.o.j 0 0 0 N 8.f.k.P q 0 0 ",
"V V V ) f.8.f.k.f.f.2.R R R R R R R R R R R R R R R R R R R R R T R R R R R R R R R R R T R R R R R R R R R R R ) 8.f.f.P 0 0 0 ",
"m V V ) f.f.f.8.f.f.8.( R R R R R R R R R R R R R R R R R R R R R R R R R R R R R R R R R R R R R R R R R R R R >.8.f.f.P 0 0 0 ",
"V V V ) k.k.f.f.f.k.2.R R R R R R R R R R R R R R R R R R R R R R R R R R R R R R R R R R R R R R R R R R R R R ) 8.f.f.P 0 0 0 ",
"w w w ( k.8.f.f.f.k.8.2.2.>.1.2.1.1.1.1.1.1.1.1.1.1.1.1.1.1.1.1.1.1.1.<.1.1.1.1.1.1.<.1.1.1.1.1.1.1.1.1.<.1.1.1.2.f.f.f.P 0 0 0 ",
"0 0 0 Q 8.k.8.f.f.f.f.f.f.k.8.k.f.f.f.f.9.f.f.f.k.k.8.f.9.k.f.f.f.f.9.k.f.f.f.f.f.f.9.k.f.f.f.f.9.f.8.f.k.f.k.f.k.f.f.k.P 0 0 0 ",
"0 0 0 T k.8.k.f.f.f.f.f.f.8.k.8.f.f.f.f.f.f.k.8.8.k.k.8.k.8.f.9.f.f.k.8.f.f.f.f.f.8.f.9.f.f.f.f.9.f.f.f.9.k.8.k.f.f.f.f.P 0 0 0 ",
"0 0 0 T 8.8.8.f.f.k.f.k.k.f.k.k.k.l.f.k.k.l.k.k.k.f.f.f.k.k.f.l.k.k.f.f.f.f.f.f.k.f.l.k.k.k.f.f.f.f.f.f.f.f.f.f.8.8.2.8.P q q 0 ",
"0 0 0 J >.) >.8.k.f.k.c.C.v.V.C.v.v.C.x.V.C.v.v.v.v.C.C.C.x.C.v.x.c.k.f.f.f.f.f.f.l.C.x.v.C.C.C.v.f.f.f.f.f.f.f.1.>.>.>.l w 0 0 ",
"0 0 q C R R R 2.f.f.k.C.F.F.F.F.F.F.F.F.F.F.F.F.C.D.F.F.C.D.F.F.F.v.k.f.f.f.f.f.f.c.F.D.C.C.F.F.C.f.f.f.f.f.f.f.1.R R R l 0 0 0 ",
"0 q q V R R R 2.f.f.k.C.F.F.F.F.F.F.F.F.F.F.F.F.F.F.F.F.F.F.F.F.F.C.l.k.f.f.f.f.f.x.F.C.D.D.F.F.C.z.f.f.f.f.f.f.2.R R R V 0 0 0 ",
"0 0 0 V T P Y <.1.1.7.l.x.x.z.x.x.x.v.x.x.x.x.x.v.V.x.v.x.x.v.x.x.l.8.2.2.2.2.1.1.f.x.x.z.x.x.x.c.2.<.2.2.1.1.1.>.Y U U V q 0 0 ",
"0 0 0 q t q w p p p p n n n N L L L L L L J P L I L L L L J L L I J C C J V p p p p n s M L L J L n p p p w p p p w w w q q 0 q ",
"0 0 0 q 0 0 0 0 q 0 0 0 0 0 q m k V m V V V k V m V V l V V V V N V N V N p 0 0 0 0 q 0 q p V V a q 0 0 0 0 0 0 0 0 0 0 0 0 0 0 ",
"0 0 0 0 0 0 0 q 0 0 0 0 q q w N V V V V V V V V k V V V k V V m V V V V l p 0 0 0 0 0 0 0 a l m a q 0 0 0 q 0 0 q 0 0 0 0 0 0 0 "
};
