/* XPM */
static char *df6a1cd1d1274a07f85edb6716d7df95ljtSQtxlfqH2aNQt[] = {
/* columns rows colors chars-per-pixel */
"64 64 113 2 ",
"   c #23131E",
".  c #261620",
"X  c #2A1722",
"o  c #2C1A24",
"O  c #2E1E29",
"+  c #321E27",
"@  c #331E28",
"#  c #32222C",
"$  c #3B232C",
"%  c #3C2B2E",
"&  c #372831",
"*  c #3C2C35",
"=  c #3D2E39",
"-  c #3F303B",
";  c #41272F",
":  c #462A32",
">  c #492A36",
",  c #4D2D38",
"<  c #502F39",
"1  c #453235",
"2  c #4A3036",
"3  c #4F3937",
"4  c #41323C",
"5  c #4E373A",
"6  c #523237",
"7  c #55333C",
"8  c #5B363E",
"9  c #54393C",
"0  c #5D393E",
"q  c #5D473F",
"w  c #453641",
"e  c #483742",
"r  c #473842",
"t  c #4A3B44",
"y  c #4F3F48",
"u  c #5F3840",
"i  c #623B41",
"p  c #4F4048",
"a  c #504047",
"s  c #55454C",
"d  c #58474E",
"f  c #58484F",
"g  c #574650",
"h  c #584751",
"j  c #5B4A52",
"k  c #624246",
"l  c #6B4246",
"z  c #624A41",
"x  c #674649",
"c  c #6C454A",
"v  c #6C4A4B",
"b  c #704647",
"n  c #714648",
"m  c #734A4C",
"M  c #794C4C",
"N  c #675044",
"B  c #6A5246",
"V  c #7D504F",
"C  c #604F56",
"Z  c #604E58",
"A  c #764E50",
"S  c #794F51",
"D  c #64525A",
"F  c #69575E",
"G  c #6A585F",
"H  c #745150",
"J  c #7C5252",
"K  c #7F5856",
"L  c #7F5957",
"P  c #7C6250",
"I  c #7E6553",
"U  c #6C5A61",
"Y  c #735F68",
"T  c #756169",
"R  c #79656D",
"E  c #805453",
"W  c #815757",
"Q  c #835856",
"!  c #865C5A",
"~  c #865D5B",
"^  c #865E5C",
"/  c #895E5B",
"(  c #8A5F5C",
")  c #87605D",
"_  c #8B625F",
"`  c #8C615E",
"'  c #96795F",
"]  c #8D6360",
"[  c #8F6561",
"{  c #8E6862",
"}  c #916763",
"|  c #936B65",
" . c #887F64",
".. c #917167",
"X. c #997D62",
"o. c #95746A",
"O. c #9A776C",
"+. c #9D7C6F",
"@. c #9E7D70",
"#. c #9F8164",
"$. c #938668",
"%. c #9B9371",
"&. c #A38567",
"*. c #A48667",
"=. c #A98A6A",
"-. c #AC8F6D",
";. c #A08072",
":. c #A59C77",
">. c #B4A87E",
",. c #B8B184",
"<. c #BFB889",
"1. c #CBC08D",
"2. c #D8D39A",
/* pixels */
"> > > < 7 7 7 u u u u u u u k m m m x k k k u u u i x c c v m m m m m m v 5 1 1 1 1 1 1 u m m m x k k k u u u u 7 7 7 , > > , l ",
"> > > > > > > > > > > > > > < u u u < > > > > > > , 0 u u u u u u u u u 7 o             % u u 0 < > > > > > > > > > > > > > , l ",
"> > > > > > > > > > > > > > < u u u < > > > > > > , 0 u u u u u u u u u 7 o             % u u 0 < > > > > > > > > > > > > > , l ",
"> > > , < < < 7 7 7 7 7 7 7 u k i i u 7 7 7 7 7 7 8 i i i i i i i 8 7 7 6 1 1 1 * $ $ $ : 7 7 7 7 7 7 7 7 7 7 6 < < < , > > , l ",
"> > > i n n m W ~ ~ ~ ~ ~ ~ ~ ( ( ( ~ ~ ~ ~ ~ ~ ~ ~ ( ( ( ( ( ( ~ 2 X X % :.<.<.>.X.' ' z X X o x ~ ~ ~ ~ ~ ~ L n n n 0 > > , l ",
"> > > i M M M ( [ [ [ [ [ [ [ [ [ [ [ [ [ [ [ [ [ [ [ [ [ [ } [ ` 2     % ,.2.2.1.-.=.=.B     . v [ [ [ [ [ [ / M M M i > > , l ",
"> > > i M M M ( [ [ [ [ [ [ [ [ [ [ [ [ [ [ [ [ [ [ [ [ [ [ } } ` 2     % ,.2.2.1.-.=.=.B     . v [ [ [ [ [ [ / M M M i > > , l ",
"> > > l E E W ` [ [ [ [ [ [ [ [ [ [ [ [ [ [ [ [ [ [ [ [ [ L v v x : O O *  .%.%.$.I P P N 3 3 9 k x x m _ [ [ _ E E E i > > > i ",
"> > > m [ [ [ [ [ [ [ [ [ [ [ [ [ [ [ [ [ [ [ [ [ [ [ [ [ k . . . * w w 4 o X X X . . . z *.*.#.3 . . # L [ [ [ [ [ [ x > > > > ",
"> > > m [ [ [ [ [ [ [ [ [ [ [ [ [ [ [ [ [ [ [ [ [ [ [ [ [ k       * w w 4 o             z =.=.&.3     + L [ [ [ [ [ [ x > > > > ",
"> > > m [ [ [ [ [ [ [ [ [ [ [ [ [ [ [ [ [ [ [ [ [ [ [ [ [ k       * w w 4 o             z =.=.&.3     + L [ [ [ [ [ [ x > > > > ",
"7 7 7 A [ [ [ [ [ [ [ [ [ [ [ [ [ [ ~ W W J u 9 9 9 9 9 9 %       O # # # & & & #       % z z q #     o l m m J ] [ [ m 7 7 7 u ",
"i u u J [ [ [ [ [ [ [ [ [ [ [ [ [ [ W M M b +                           . - w w = .                   X 7 u u c ` [ [ A u u i n ",
"i u u J [ [ [ [ [ [ [ [ [ [ [ [ [ [ W M M b +                           . - w w = .                   X 7 u u c ` [ [ A u u i n ",
"i u u J ` ` ` ` ` ` ` [ [ [ _ ^ ^ ^ J n n l @ . . . . . . . . . . . . . o = 4 4 * .     . X X X X X X + 8 i i c _ ` ` m u u i n ",
"i u u n J J J J J J W ` [ [ v % % % $ $ $ $ * = = - e e e e e e e 4 = = * O o o o       2 H H H l i i i b n n m J J J c i u i n ",
"i u u l M M M M M M J ` [ [ k             . = w w e s s s s s s s t w w 4 o             9 [ [ [ E M M M M M M M M M M l u u i n ",
"i u u l M M M M M M J ` [ [ k             . = w w e s s s s s s s t w w 4 o             9 [ [ [ E M M M M M M M M M M l u u i n ",
"0 8 8 c J J J J J J J / _ _ k       X o o # e y y s s s s f j j j y e e 4 # o o o       7 ~ ~ ~ E J J J J J J M M M M l 8 8 0 n ",
", > > m ` ` ` ` ` ` / J M M 8       = a a s U Y Y U f s s D T T T j s s s s a a 4 .     ; i i i L ` ` ` ` ` ` ~ M M M i > > , l ",
"> > > m [ [ [ [ [ [ _ M M M 7       4 s s h Y R R Y h s s D R R R D s s s s s s e .     % u u i L [ [ [ [ [ [ / M M M i > > , l ",
"> > > m [ [ [ [ [ [ _ M M M 7       4 s s h Y R R Y h s s D R R R D s s s s s s e .     % u u i L [ [ [ [ [ [ / M M M i > > , l ",
"> > > m [ [ [ [ [ [ ~ 0 8 8 > # # # y D D D T R R Y h s s j D D D s p p s s s s y # # # $ : : > J [ [ [ [ [ [ _ W W W i > > , l ",
"> > > m [ [ [ [ [ [ J o     # w w w D R R R R R R Y h s s y w w w w w w r s s s s w w w &     . v [ [ [ [ [ [ [ [ [ [ x > > , l ",
"> > > m [ [ [ [ [ [ J o     # w w w D R R R R R R Y h s s y w w w w w w r s s s s w w w &       v [ [ [ [ [ [ [ [ [ [ x > > , l ",
"> > > m [ [ [ [ [ [ J o     # w w w D R R R R R R Y f s s y w w w w w w r s s s s w w w &     . v [ [ [ [ [ [ [ [ [ [ x > > , l ",
"7 7 7 A [ [ [ [ [ [ J o     # p y y F R R T Z h h g y y y t w w w w w w r s s s s p y y *     . v [ [ [ [ [ [ [ [ [ [ m 7 7 7 c ",
"i u u J [ [ [ [ [ [ J o     & s s s U R R T y w w w w w w w w w w w w w r s s s s s s s =     . v [ [ [ [ [ [ [ [ [ [ A u u i n ",
"i u u J [ [ [ [ [ [ J o     & s s s U R R T y w w w w w w w w w w w w w r s s s s s s s =     . v [ [ [ [ [ [ [ [ [ [ A u u i n ",
"i u u J [ [ [ [ [ [ J o     & s s s F T T Y y w w w w w w w w w w w w w e s h h f s s s =     . v [ [ [ [ [ [ [ [ [ [ A u u i n ",
"i u u J [ [ [ [ [ [ J o     & s s s h j j j s s s p w w w w w w w y s s s U Y Y G d s s =     . v [ [ [ [ [ [ [ [ [ [ A u u i n ",
"i u u J [ [ [ [ [ [ J o     & s s s s s s s s s s s w w w w w w w s s s h Y R R Y f s s =     . v [ [ [ [ [ [ [ [ [ [ A u u i n ",
"i u u J [ [ [ [ [ [ J o     & s s s s s s s s s s s w w w w w w w s s s h Y R R Y f s s =     . v [ [ [ [ [ [ [ [ [ [ A u u i n ",
"i u u J [ [ [ [ [ [ J o     # s s s s s s s s s s y w w w w w w w s j j C T R R U s s s =     . x _ _ _ [ [ [ [ [ [ [ A u u i n ",
"i u u J [ [ [ [ [ [ J o     # r w w s s s s t w w w w w w w w w w D T T T R R R U t w w &     . 0 M M J _ [ [ [ [ [ [ A u u i n ",
"i u u J [ [ [ [ [ [ J o     # w w w y s s s e w w w w w w w w w w D R R R R R R U t w w &     . 0 M M M _ [ [ [ [ [ [ A u u i n ",
"i u u J [ [ [ [ [ [ J o     # w w w y s s s e w w w w w w w w w w D R R R R R R U t w w &     . 0 M M M _ [ [ [ [ [ [ A u u i n ",
"i u u J [ [ [ [ [ [ L : $ $ $ & & & e s s s y y y y y y y s h h j U R R T U G G j * & & $ $ $ % c W W Q ` [ [ ` ~ ~ ~ m u u i n ",
"i u u J [ [ [ [ [ [ ~ i u u :       4 s s s s s s s s s s D R R R R R R T j s s e .     % u u i L [ [ [ [ [ [ / M M M l u u i n ",
"i u u J [ [ [ [ [ [ ~ i u u :       4 s s s s s s s s s s D R R R R R R T j s s e .     % u u i L [ [ [ [ [ [ / M M M l u u i n ",
"i u u J [ [ [ [ [ [ ~ i u u :       4 s s s s s s s s s s D R R R R R R T h s s e .     % u u i L [ [ [ [ [ [ / M M M l u u i n ",
"u u u J [ [ [ [ [ [ ( n c c 6       O # # & w t t y s s s h D D D j h h s * # # #       : c c n ~ [ [ [ [ [ [ ` ~ ~ ~ m u u i n ",
"u u u J [ [ [ [ [ [ _ M M M 7             . = w w e s s s s s s s t w w 4 o             > M M M / [ [ [ [ [ [ [ [ [ [ A u u i n ",
"u u u J [ [ [ [ [ [ _ M M M 7             . = w w e s s s s s s s t w w 4 o             > M M M / [ [ [ [ [ [ [ [ [ [ A u u i n ",
"u u u S ` ` ` ` ` ` / J M M 0 o o o X X X o = 4 4 4 y a a a a a y w 4 4 = o X X X o o o 6 M M V / [ [ [ [ [ [ [ [ [ [ A u u i n ",
"u u u n V V V V V V J ( _ _ J l l l 0 7 7 , @ o o o o o o o o o o o o o o , 7 7 8 l l l J _ _ _ ` [ [ [ [ [ [ [ [ [ [ A u u i n ",
"u u u l M M M M M M J ` [ [ ~ M M M l u u 8 o                           X 7 u u i m M M Q [ [ [ [ [ [ [ [ [ [ [ [ [ [ A u u i n ",
"u u u l M M M M M M J ` [ [ ~ M M M l u u 8 o                           X 7 u u i m M M Q [ [ [ [ [ [ [ [ [ [ [ [ [ [ A u u i n ",
"u u u n J J J J J J W ` [ [ / J J J c i i i ; $ $ $ $ $ $ $ $ $ $ $ $ $ % 0 i i l J J J ~ [ [ [ [ [ [ [ [ [ [ [ [ [ [ A u u i n ",
"i u u J ` ` ` ` ` ` ` [ [ [ [ ` ` ` E m m m n n n n n n n n n n n n n n n m m m J ` ` ` [ [ [ [ [ [ [ [ [ [ [ [ [ [ [ A u u i n ",
"i u u J [ [ [ [ [ [ [ [ [ [ [ [ [ [ W M M M M M M M M M M M M M M M M M M M M M J ` [ [ [ [ [ [ [ [ [ [ [ [ [ [ [ [ [ A u u i n ",
"i u u J [ [ [ [ [ [ [ [ [ [ [ [ [ [ W M M M M M M M M M M M M M M M M M M M M M J ` [ [ [ [ [ [ [ [ [ [ [ [ [ [ [ [ [ A u u i n ",
"7 7 7 A [ [ [ [ [ [ [ [ [ [ [ [ [ [ ~ Q Q Q Q Q Q Q Q Q Q Q Q Q Q Q Q Q Q Q Q Q ~ [ [ [ [ [ [ [ [ [ [ [ [ [ [ [ [ [ [ m 7 7 7 c ",
"> > > m [ [ [ [ [ [ [ [ [ [ [ [ [ [ [ [ [ [ [ [ [ [ [ [ [ [ [ [ [ [ [ [ } } [ [ [ [ [ [ [ [ [ [ [ [ [ [ [ [ [ [ [ [ [ x > > , l ",
"> > > m [ [ [ [ [ [ [ [ [ [ [ [ [ [ [ [ [ [ [ [ [ [ [ [ [ [ [ [ [ [ [ [ [ [ [ [ [ [ [ [ [ [ [ [ [ [ [ [ [ [ [ [ [ [ [ x > > , l ",
"> > > m [ [ [ [ [ [ [ [ [ [ [ [ [ [ [ [ [ [ [ [ [ [ [ [ [ [ [ [ [ [ [ [ [ [ [ [ [ [ [ [ [ [ [ [ [ [ [ [ [ [ [ [ [ [ [ x > > , l ",
"> > > l E E W ` [ [ [ [ [ [ | O.O.O.O.O.O.O.} [ [ [ [ [ [ | O.O.O.O.O.O.O.O.O.O.O.O.O.O.O.O.O.O.O.O.O.O.} [ [ _ E E E i > > , l ",
"> > > i M M M ( [ [ [ [ [ [ | ;.;.;.;.;.;.@.| [ [ [ [ [ [ o.;.;.;.;.;.;.;.;.;.;.;.;.;.;.;.;.;.;.;.;.;.+.} [ [ / M M M i > > , l ",
"> > > i M M M ( [ [ [ [ [ [ | ;.;.;.;.;.;.@.| [ [ [ [ [ [ o.;.;.;.;.;.;.;.;.;.;.;.;.;.;.;.;.;.;.;.;.;.+.} [ [ / M M M i > > , l ",
"> > > i n n n W ~ ~ ~ ~ ^ ^ { o.o.o.o.o.o.o.) ^ ~ ~ ^ ( ( { o.o.o.o.o.o.o.o.o.o.o.o.o.o.o.o.o.o.o.o.o...) ~ ~ L n n n 0 > > , l ",
"> > > , < < < 7 7 7 7 7 7 7 u l l l u 7 7 7 7 7 7 7 i i i k l l l l l l l l l l l l l l l l l l u 7 7 7 7 7 7 7 < < < , > > , l ",
"> > > > > > > > > > > > > > < u u u < > > > > > > , 0 u u u i i u u u u u u u u u u u u u u u 0 < > > > > > > > > > > > > > , l ",
"> > > > > > > > > > > > > > < u u u < > > > > > > , 0 u u u u u u u u u u u u u u u u u u u u 0 < > > > > > > > > > > > > > , l ",
"> > > < 7 7 8 u u u u u u u i c c c i u u u u u u i c c c c c c c c c c c c c c c c c c c c c c i u u u u u u u 7 7 7 < > > , l "
};
