/* XPM */
static char *Untitled_design__7_1713542374[] = {
/* columns rows colors chars-per-pixel */
"64 64 87 1 ",
"  c #492A36",
". c #4A2B36",
"X c #4B2B37",
"o c #4C2C37",
"O c #4D2C37",
"+ c #4C2C38",
"@ c #4D2C38",
"# c #4E2D38",
"$ c #4F2F39",
"% c #502F39",
"& c #4F303A",
"* c #53303B",
"= c #53313B",
"- c #53333C",
"; c #55323C",
": c #57343D",
"> c #58343D",
", c #5B363E",
"< c #5C363E",
"1 c #5D363F",
"2 c #5E373F",
"3 c #5C383F",
"4 c #5E3840",
"5 c #5F3840",
"6 c #5F3B42",
"7 c #603A41",
"8 c #613A41",
"9 c #623B42",
"0 c #643D43",
"q c #643D44",
"w c #634046",
"e c #674146",
"r c #684044",
"t c #6C4346",
"y c #664248",
"u c #684449",
"i c #694549",
"p c #6D464A",
"a c #6F474B",
"s c #6F484B",
"d c #70484B",
"f c #71494D",
"g c #724A4D",
"h c #734A4D",
"j c #734B4E",
"k c #784B4B",
"l c #794C4C",
"z c #7C4F4E",
"x c #744E50",
"c c #775152",
"v c #785253",
"b c #7D5150",
"n c #7B5454",
"m c #7C5555",
"M c #7E5555",
"N c #7F5656",
"B c #7E5857",
"V c #835756",
"C c #835856",
"Z c #845957",
"A c #825958",
"S c #865F5C",
"D c #895E5B",
"F c #8A5F5C",
"G c #85635E",
"H c #8B605D",
"J c #8D625F",
"K c #876660",
"L c #8D6360",
"P c #8D6460",
"I c #8F6561",
"U c #896962",
"Y c #8A6A62",
"T c #8E6C64",
"R c #8E6D64",
"E c #906662",
"W c #916863",
"Q c #916963",
"! c #926964",
"~ c #926A64",
"^ c #946D66",
"/ c #99766B",
"( c #9B786D",
") c #9D7B6F",
"_ c #9E7C70",
"` c #9F7F71",
"' c #A08072",
/* pixels */
"              ,254+      @55555555555555773727982.              ",
"              :555+      @45535555555555327272372.              ",
"  %,,,5wwwwwwwpjsiewqqwwqeijsjjsjjssdjjsjjpjajaapy0qwwwwq5,,*   ",
"  3kklCJIJLLJIJJILPIILILPLILLILIJJJIJJIJJEJIJJJELJIELLLLSlkke   ",
"  3lllZIIIIIIIIIIIIIIIIIIIIIIIIIIIIIIIIIIIIIIIIIIIIIIIIIIlllr   ",
"  3lllZIIIIIIIIIIIIIIIIIIIIIIIIIIIIIIIIIIIIIIIIIIIIIIIIIDlllrO  ",
"**eCZVDIIIIIIIIIIIIIIIIIIIIIIIIIIIIIIIIIIIIIIIIIIIIIIIIIJCCCjO  ",
"55jIEIIIIIIIIIIIIIIIIIIIIIIIIIIIIIIIIIIIIIIIIIIIIIIIIIIIIIIIxO  ",
"55jIIIIIIIIIIIIIIIIIIIIIIIIIIIIIIIIIIIIIIIIIIIIIWJWJWJWLIIIIc@  ",
"55jIIIIIIIIIIIIIIIIIIIIIIIIIIIIIIIIIIIIIIIIIIIIIJWJWJWJEIIIIc   ",
"55jIIIIIIIIIIIIIIIIIIIIIIIIIIIIIIIIIIIIIIIIIIIIIWJWJWJELIIIIn>::",
"55jIIIIIIIIIIIIIIIIIIIIIIIIIIIIIIIIIIIIIIIIIIIIIJWJWJWJEIIIIN742",
"55jIIIIIIIIIIIIIIIIIIIIIIIIIIIIIIIIIIIIIIIIIIIIIWJWJEJEEEJLEN747",
"55jIIIIIIIIIIIIIIIIIIIIIIIIIIIIIIIIIIIIIIIIIIIIIJWJWEJEJEEEEN774",
"55jIIIIIIIIIIIIIIIIIIIIIIIIIIIIIIIIIIIIIIIIIIIIIWJWJEEJEJEELV727",
"55jIIIIIIIIIIIIIIIIIIIIIIIIIIIIIIIIIIIIIIIIIIIIIJWJWJEEEJEEJN772",
"55jIIIIIIIIIIIIIIIIIIIIIIIIIIIIIWJWJWJWJWJWJWJWJWJWJWJWJWJWJZ737",
"33jIIIIIIIIIIIIIIIIIIIIIIIIIIIIIJWJWJWJWJWJWJWJWJWJWJWJWJWJWV,23",
"@@iIIIIIIIIIIIIIIIIIIIIIIIIIIIIIWJWJWJWJWJWJWJWJWJWJWJWJWJWJv*.%",
"  yIIIIIIIIIIIIIIIIIIIIIIIIIIIIIJWJWJWJWJWJWJWJWJWJWJWJWJWJWv@  ",
"  yIIIIIIIIIIIIIIIIIIIIIIIIIIIIIWJWJWJWJWJWJWJWJWJWJWJWJIIIIvO  ",
"  yIIIIIIIIIIIIIIIIIIIIIIIIIIIIIJWJWJWJWJWJWJWJWJWJWJWJWIIIIc   ",
"  yIIIIIIIIIIIIIIIIIIIIIIIIIIIIIWJWJWJWJWJWJWJWJWJWJWJWJIIIIc@  ",
"  eIIIIIIIIIIIIIIIIIIIIIIIIIIIIIJWJWJWJWJWJWJWJWJWJWJWJWIIIIcO  ",
"  yIIIIIIIIIIIIIIIIIIIIIIIIIIIIIWJWJWJWJWJWJWJWJWJWJEJELIIIIc@  ",
"  yIIIIIIIIIIIIIIIIIIIIIIIIIIIIIJWJWJWJWJWJWJWJWJWJWJEEEIIIIv@@@",
"  yIIIIIIIIIIIIIIIIIIIIIIIIIIIIIWJWJWJWJWJWJWJWJWJWJEEWLIIIIB555",
"  yIIIIIIIIIIIIIIIIIIIIIIIIIIIIIJWJWJWJWJWJWJWJWJWJEJELWIIIIN555",
"  yIIIIIIIIIIIIIIIIIIIIIIIIIIIIIWJWJWJWJWJWJWJWJWJWJLEELIIIIN755",
"  yIIIIIIIIIIIIIIIIIIIIIIIIIIIIIJWJWJWJWJWJWJWJWJWJWEEFWIIIIN357",
"  yIIIIIIIIIIIIIIIIIIIIIIIIIIIIIWJWJWJWJWJWJWJWJWJWJELWLIIIIC755",
"  yIIIIIIIIIIIIIIIIIIIIIIIIIIIIIJWJWJWJWJWJWJWJWJWJWELIIWLIJN755",
"  yLIIIIIIIIIIIIIIIIIIIIIIIIIIIIWJWJWJWJWJWJWJWJWJWJWJWJWJWJZ737",
"%%pEIIIIIIIIIIIIIIIIIIIIIIIIIIIIJWJWJWJWJWJWJWJWJWJWJWJWJWJWV772",
"55jLIIIIIIIIIIIIIIIIIIIIIIIIIIIIWJWJWJWJWJWJWJWJWJWJWJWJWJWJV727",
"55xIIIIIIIIIIIIIIIIIIIIIIIIIIIIIJWJWJWJWJWJWJWJWJWJWJWJWJWJWN772",
"56jIIIIIIIIIIIIIIIIIIIIIIIIIIIIIWJWJWJWJWJWJWJWJWJWJWJWJIIIIN728",
"55jIIIIIIIIIIIIIIIIIIIIIIIIIIIIIJWJWJWJWJWJWJWJWJWJWJWJWIIIIN781",
"45sIIIIIIIIIIIIIIIIIIIIIIIIIIIIIWJWJWJWJWJWJWJWJWJWJWJWJIIEIM818",
"54jWIIIIIIIIIIIIIIIIIIIIIIIIIIIIJWJWJWJWJWJWJWJWJWJWJWJWIILLV881",
"45jIEEDEIIIIIIIIIIIIIIIIIIIIIIIIWJWJWJWJWJWJWJWJJWJWEEEJIIIIN747",
"55jEEEEEIIIIIIIIIIIIIIIIIIIIIIIIJWJWJWJWJWJWJWJWWJWJJJEEIIIIN784",
"45jEEJEEIIIIIIIIIIIIIIIIIIIIIIIIWJWJWJWJWJWJWJWJJWJWEEJEIIIIV818",
"54jEEEEJIIIIIIIIIIIIIIIIIIIIIIIIJWJWJWJWJWJWJWJWWJWJWJEEIIIIM881",
"27jEJJEEIIIIIIIIIIIIIIIIIIIIIIIIWJWJWJWJWJWJWJWJJWJWEEJJLEEEM748",
"72jJEEEJIIIIIIIIIIIIIIIIIIIIIIIIJWJWJWJWJWJWJWJWWJWJJEEEEELLM784",
"27jEEEEJIIIIIIIIIIIIIIIIIIIIIIIIWJWJWJWJWJWJWJWJJWJWJEEEEJEEM848",
"72jEJJEEIIIIIIIIIIIIIIIIIIIIIIIIJWJWJWJWJWJWJWJWWJWJEEJJEELEM881",
"27jIEEJJEEJWJWJWIIIIIIIIIIIIIIIIWJWJWJWJWJWJELLWJWJWJWJWJWJWN828",
"72jEJEEEEJWJWJWJIIIIIIIIIIIIIIIIJWJWJWJWJWJEEEIIWJWJWJWJWJWJN882",
"27dEJEEELEEEJWJWIIIIIIIIIIIIIIIIWJWJWJWJWJLELEWLJWJWJWJWJWJWV723",
"72jEEEJJELEJWJWJIIIIIIIIIIIIIIIIJWJWJWJWJWEWFEILWJWJWJWJWJWJN772",
"2,aEELEEJWJWJWJWIIIIIIIIIIIIIIIIWJWJWJWJWJWJIIIIJWJWJWJWEEEJN322",
"..iEEEJEWJWJWJWJIIIIIIIIIIIIIIIIJWJWJWJWJWJWIIIIWJWJWJWJIJEEcO+.",
"  0ELJEEJWJWJWJWIIIIIIIIIIIIIIIIWJWJWJWJWJWJIIIWJWJWJWJWIIJEc%  ",
"  iEEEEJWJWJWJWJIIIIIIIIIIIIIIIIJWJWJWJWJWJWIIWIWJWJWJWJIIEEc.  ",
"  9JJJIIJWJWJJW^TE~WWWEIIIIII~~I^W^!^W^WWWWW~~~~~I~I~IIIIJJJjO  ",
"  3blbCIWJWJWE/)``__)`IIIIIII~``)__`__`_)`'))'))``'`(IIIFzzbr.  ",
"  3lkkCIJWJWJ^)`''''`)IIIIIII~''```'''``''''''''''''`IIIDllleO  ",
"  3lllCIWJWJEE(`''''``~IIIIII^''```''```'''''''''''``~IIFllleO  ",
"  ,tttjmmmmmMCGUUUUUUKAMBnAAVKW~RRRT~~RRIRRRRRRRRYYYGCmmvttt7   ",
"   O@ &&@&@@@.&*&&&&@%+.@:477999qqq9qqqwqqwqqqq65-&&*O&@# OO    ",
"                    +    %84818174817294546555445@      O       ",
"                         +44181847272747554556555+              "
};
