/* XPM */
static char *Untitled_design__10_1713619076[] = {
/* columns rows colors chars-per-pixel */
"64 64 49 1 ",
"  c #492A36",
". c #4A2B36",
"X c #4B2B37",
"o c #4C2C37",
"O c #4D2C37",
"+ c #4D2D38",
"@ c #4F2D38",
"# c #4F2E39",
"$ c #502F39",
"% c #522F3A",
"& c #53313A",
"* c #54313B",
"= c #54323B",
"- c #57343C",
"; c #58333C",
": c #59363D",
"> c #5A353E",
", c #5D373F",
"< c #5E373F",
"1 c #5E383F",
"2 c #5E3740",
"3 c #5F3840",
"4 c #5E3940",
"5 c #603840",
"6 c #603940",
"7 c #613A41",
"8 c #633B42",
"9 c #633C42",
"0 c #653C42",
"q c #673F43",
"w c #673E44",
"e c #683F44",
"r c #693F44",
"t c #694044",
"y c #6C4245",
"u c #6C4246",
"i c #6F4547",
"p c #704547",
"a c #704548",
"s c #714548",
"d c #734849",
"f c #75484A",
"g c #76494B",
"h c #774A4B",
"j c #774B4B",
"k c #784B4B",
"l c #784B4C",
"z c #784C4C",
"x c #794C4C",
/* pixels */
"73337,7*     .        #>3>13,3&       >>,17,,2222,,,1&          ",
",>>>2,,>***&**&#.#&&&&>7tqqqq9>&==###%>>>>,7,70qrqqqq>&==# ##   ",
"# o%,73thhahhda91,1igghhhhhhhhhdgdt>,># o%>,70fhhhhhhhdhaq22,   ",
"#  %133yhkxxzxhw339hgxhxzxhhxxzxgxw3,,#   ,7,rhhllkhxxxxgt22,o  ",
"o  &,13yxxxxxxhw339hxxxxxxxxxxxxllq71,o .o122rhlxxxxxxxxhq33>o  ",
"o  &wqwaxxxxxxzwttthxxxxxxxxxxxxxlyrrr1>>1qqrraaiiiiadxxhiwrr#  ",
"   >hkkxxxxxxxxzkkkxxxxxxxxxxxxxxxlkkkkhkkkkha7533333ihxxlxkp%  ",
"   >hxxxxxxxxxxxxxxxxxxxxxxxxxxxxxxxxxxkxxxxla7,33333ylxxxlkf%  ",
"  .>jxxxxxxxxxxxxxxxxxxxxxxxxxxxxxxxxxxxxxxxxa7733377rxxxxlxh&  ",
"  .>jxxxxxxxxxxxxxxxxxxxxxxxxxxxxxxxxxxxxxxxkkyyyyyytkxxkayyq#  ",
".  -jxxxxxxxxxxxxxxxxxxxxxxxxxxxxxxxxxllxxxxxxxxxxxxxxxxkw252o  ",
".  >jxxxxxxxxxxxxxxxxxxxxxxxxxxxxxxxxxllxxxxxxxkxxxxxxxxkw7,2o  ",
".  -jxxxxxlhhjkkkkkxkjkhhkxxxxxxxxxxxxlkkkkkkkkklxgxxlxxlr332o  ",
"$ .>hxxxxxxatww1>>>:>>1wtwahxxxxxxxxlkyqrr,>>>>>>7wttaxxhaiir>&>",
"$  -hxxxxxlt331#      .333thxxxxxxxxxkq7,,       %333txxxxxxh733",
"...>zxxxxxht331o      #233tlxxxxxxxxxk727>o      &331ixxxxxlhw33",
"$  >jjxxxxxt11>o      #>11qxxxxxxxxxkk7>1*       %2,>txxxxxxlq22",
". .:jjxxxxk1.##        #oo1jxxxxxxxxla>#%%        o##qxxxxxxh7,7",
"$  >jxxxxxj:.             >kxxxxxxxxlk&              7xxxxxxh77,",
"o  >jxxxxkk1             .1jxxxxxxxxkf&              qxxxxxxhq25",
"# .:jxxxxxk>              >jxxxxxxxxxk&              7xxxxxxf7,>",
". .:jxxxxxk1              1jxxxxxxxxxa&              qxxxxxxa*oo",
"$ .:jxxxxxj>              >kxxxxxxxxkh&              7xxxxkka&  ",
"o .:jxxxxkj>              1kxxxxxxxxhf&              7xxxxkhh*  ",
"#  >jxxxxxj>              >hxxxxxxxxxa*              9xxxxxxk%  ",
"o .>jxxxxxj1              >kxxxxxxxxxh&              9xxxxxxh&  ",
".  >jxxxxxj:              ,kxxxxxxxxkd&              9xxxxxxa#  ",
"o  :jxxxxkj1              >hxxxxxxxxxh&              9xxxxxxd&  ",
"-&#3zzxxxxh7&&%       o%&&2kxxxxxxxxxh>#%#        &&&wzxxxxxd&  ",
"933tjxxxxxxt333#      #,1,rlxxxxxxxxxh937,       %223ixxxxxxd&  ",
"333wjxxxxxxt33>.      #,15rlxxxxxxxxhhq,2>       %333txxxxxxp&  ",
"913tjxxxxxht333#      .17,rlxxxxxxxxlhq2,>#      %331ixxxxxxd&  ",
"733tjxxxxxlt,77**&***&;,33tzxxxxxxxxxh9332====****753yxxxxxxd&  ",
"733wkxxxxxlr72,32725272233rxxxxxxxxxxhq33372725,27522ixxxxxxd&  ",
"733tkxxxxxlr,77,527,52,733thxxxxxxxxlk77333327,725273yxxxxxxa&  ",
"711wkxxxxxlr5,22,725,77773tzxxxxxxxxlk0,33332252755,,pxxxxxxh%  ",
"&#%1jxxxxxxhaai75,52337yaaaxxxxxxxkklkaaat733333,qaaakxxxxxxa&  ",
"#  >jxxxxxkkxxhq27,733qhgxxxxxxxxxxklxxlzdq233342rxxxlxlxxxxd&  ",
".  -hxxlkhlxhxhq255213qhkhxxjkxxxxhkkkxxzd9333335wllxhkkxxxxa&  ",
"# .>kxxhhhkkhaaq2>,,,>7phhdlhdhahkhahffkda3>3-232qfahhkhhhxjh*o.",
"o..-jjkpr7q;&&& # %# ##%&&&%&&#&&&&&&$&&$$$..& ###&&&2q9qaxxh1>>",
"# .>jjjp21,%                               .  X      &,32axxh733",
"o  >xxxi7,1%                                         &337axxhq33",
"#  >zkjt>>>%                                         %3>2ixxa3,>",
". .:jxx9.%                                           ...&txxk& %",
"$  >jxj9                                              . #txka*  ",
".. >kxx9                                                 tkka%  ",
"&..-aai1            ####################$$###.         . 9iht&  ",
".  &775*           >,,,2,,,,222,,222,222,,223-.          &722   ",
"#  #,5,*          %>1172222572223323332333333-.         o>272%  ",
"o  #,57*          o,3727277,25773372337233333>.          >522o  ",
"o  $,5,*   %%*%;111tttrtrttryrrttttttttttttrrq113=&%%#   =252*%%",
"#  &22,*  X;7,7fxxxxxxxxxxxxxxxxxxxxxxxxxxxxxxxxza333&   >722,52",
"o  O137*   =,77pxxxxxxxxxxxxxxxxxxxxxxxxxxxxxxxxhi333-   *,527,7",
"&  %,7,*   =557fxxxxxxxxxxxxxxxxxxxxxxxxxxxxxxxxga332= o ;7,7252",
"===>,32777wryyyfxxxxxxxxxxxxxxxxxxxxxxxxxxxxxxxxxdattt79q725,5,7",
"7272725ylxxxxxxxxxxxxxxxxxxxxxxxxxxxxxxxxxxxxxxxxxxxxxxxfr27,7,5",
"75,5,5,yxxxxxxxxxxxxxxxxxxxxxxxxxxxxxxxxkhxxxxzzxxxxxxxxhw5,5272",
"777,52,ylglhhhhhxxxxxxxxxxxxxxxxxxlhjhhhhhhhhhgzkkxxxxxxlw2725,5",
"7,25,777rrwqqqthxxxxxxxxxxxxxxxxxlyrtw>------3wwqixxxxxxlw527,72",
"727,11755,7,,37akkxxxxxxxxxxxxxxkkr112#      #,22txxlxxxkw,7,7,5",
"752515,757,1137hkkxxxxxxxxxxxxxxxhr73>       %,72txxkhxxkr5,5272",
"5;,,55757777777ahhhhhhhhxxxxxxxxxkr777&  %#% *777rhhhhllkr7772,>",
"%o%>hpkfffhphhar7q77q7thxxxxxxxxxxhpha7>>,yaaapfhyq7qaxlhhkap%o#"
};
