/* XPM */
static char *_5701bc3980e4422ce94e05271c97645yQx3YpDGqeIkYUrH[] = {
/* columns rows colors chars-per-pixel */
"64 64 113 2 ",
"   c #492A36",
".  c #4B2C37",
"X  c #4D2C37",
"o  c #4D2D38",
"O  c #512F39",
"+  c #4F323A",
"@  c #51303A",
"#  c #55323B",
"$  c #56333C",
"%  c #54353C",
"&  c #58333C",
"*  c #58343D",
"=  c #5C363F",
"-  c #57383D",
";  c #5A3B3F",
":  c #5D383F",
">  c #5E3740",
",  c #5F3840",
"<  c #593D41",
"1  c #5C3D40",
"2  c #613941",
"3  c #633B42",
"4  c #633C41",
"5  c #653D43",
"6  c #673E43",
"7  c #673F44",
"8  c #683F44",
"9  c #614042",
"0  c #674044",
"q  c #634444",
"w  c #664746",
"e  c #6B4246",
"r  c #6C4246",
"t  c #6F4547",
"y  c #674846",
"u  c #6A4B48",
"i  c #6B4C48",
"p  c #6D4E49",
"a  c #704547",
"s  c #704548",
"d  c #734849",
"f  c #74484A",
"g  c #784B4B",
"h  c #784B4C",
"j  c #794C4C",
"k  c #6F504A",
"l  c #73544C",
"z  c #76574E",
"x  c #644953",
"c  c #654A54",
"v  c #674C55",
"b  c #6C4E57",
"n  c #795D52",
"m  c #7E5F52",
"M  c #71535A",
"N  c #74535B",
"B  c #75545B",
"V  c #7D5A5F",
"C  c #806153",
"Z  c #816254",
"A  c #836455",
"S  c #846556",
"D  c #876857",
"F  c #886A59",
"G  c #896C5A",
"H  c #8C6D5A",
"J  c #8D715D",
"K  c #96775F",
"L  c #805D60",
"P  c #846063",
"I  c #876264",
"U  c #886364",
"Y  c #8D6969",
"T  c #927660",
"R  c #947861",
"E  c #9A7B62",
"W  c #9E7F64",
"Q  c #937170",
"!  c #988067",
"~  c #9F8165",
"^  c #A58668",
"/  c #A4896A",
"(  c #A98A6A",
")  c #AA8C6B",
"_  c #AB8D6C",
"`  c #AD906E",
"'  c #AF9370",
"]  c #AF9471",
"[  c #AC9674",
"{  c #A99A78",
"}  c #B19772",
"|  c #B39A74",
" . c #B69E77",
".. c #AEA17C",
"X. c #B9A47B",
"o. c #B9A67D",
"O. c #BCA77D",
"+. c #B9AC82",
"@. c #BFAD81",
"#. c #BFB386",
"$. c #BEB488",
"%. c #C1B184",
"&. c #C4B485",
"*. c #C7B989",
"=. c #C8BA8A",
"-. c #CABE8C",
";. c #CCC18E",
":. c #CFC691",
">. c #D0C792",
",. c #D1C892",
"<. c #D2CA94",
"1. c #D7D199",
"2. c #D8D39A",
/* pixels */
"O       $ , , 2 r t t t t t t e 5 5 5 5 5 5 5 5 5 5 5 5 5 5 r t t t t t t t t t r 7 5 5 5 5 5 5 5 5 5 5 r t t 5 $ $ $ o     @ Q ",
"$       $ , , 2 f j j j j j j j j j j j j j j j j j j j j j j j j j j j j j j j j j j j j j j j j j j j j j j s 2 , , @     @ Q ",
"$       $ , , 2 f j j j j j j j j j j j j j j j j j j j j j j j j j j j j j j j j j j j j j j j j j j j j j j s 2 , , @     @ Q ",
"*       * 2 2 5 f j j j j j j j j j j j j j j j j j j j j j j j j j j j j j j j j j j j j j j j j j j j j j j s 2 2 2 @     @ Q ",
"5       5 f f f g j j j j j j j j j j j j j j j j j j j j j j j j j j j j j j j j j j j j j j j j j j j j j j f f f f *     @ Q ",
"5       0 j j j j j j j j j j j j j j j j j j j j j j j j j j j j j j j j j j j j j j j j j j j j j j j j j j j j j j :     @ Q ",
"5       0 j j j j j j j j j j j j j j j j j j j j j j j j j j j j j j j j j j j j j j j j j j j j j j j j j j j j j j :     @ Q ",
"5       0 j j j j j j j j j j j j j j j j j j j j j j j j j j j j j j j j j j j j j j j j j j j j j j j j j j j j j j :     @ Q ",
"5       0 j j j j j j j j j j j j j j j j j j j j j j j j j j j j j j j j j j j j j j j j j j j j j j j j j j j j j j :     @ Q ",
"5       0 j j j j j j j j j j j j j j j j j j j j j j j j j j j j j j j j j j j j j j j j j j j j j j j j j j j j j j :     @ Q ",
"5       0 j j j j j j j j j j j j j j j j j j j j j j j j j j j j j j j j j j j j j j j j j j j j j j j j j j j j j j :     @ Q ",
"e $ $ $ r j j j j j j j j j j j j j f r e e e e e e e e e e e e e e e e e e e e e e e e t h j j j j j j j j j j j j j 5 $ $ * Y ",
"t , , , t j j j j j j j j j j j j j f 2 , , , , , , , , , , , , , , , , , , , , , , , , 7 g j j j j j j j j j j j j j e , , 2 U ",
"t , , , t j j j j j j j j j j j j j f 2 , , , , , , , , , , , , , , , , , , , , , , , , 7 g j j j j j j j j j j j j j e , , 2 U ",
"t , , , t j j g f f f f f f f f d d s 2 = = = = = = = = = = = = = = = = = = = = = = = = 4 s d d f f f f f f f f j j j e , , 2 U ",
"t , , , t j j f 5 2 2 2 2 2 2 * @ @ O o X X X X X X X X X X X X X X X X X X X X X X X X o @ @ @ = 2 2 2 2 2 2 e g j j e , , 2 U ",
"t , , , t j j f 2 , , , , , , O                                                                 $ , , , , , , 5 g j j e , , 2 U ",
"t , , , t j j f 2 , , , , , , O                                                                 $ , , , , , , 5 g j j e , , 2 U ",
"r * * * 8 s s t 2 , , = * * * 9 w w w w w w 1                                   o 9 w w w w w w , * * * = , , 5 s s s 2 * * * V ",
"5       & 2 2 , , , , $       A ^ ^ ^ ^ ^ ^ S                                   % K ^ ^ ^ ^ ^ ^ p     X * , , , 2 2 2 @       c ",
"5       $ , , , , , , $       S ( ( ( ( ( ( D                                   % E ( ( ( ( ( ( k     X * , , , , , , @       x ",
"5       $ , , , , , , $       S ( ( ( ( ( ( D                                   % E ( ( ( ( ( ( k     X * , , , , , , @       x ",
"5       $ , , , , , , $       S ( ( ` @.&.&.[ Z C C 1                     i C C G o.&.&.o.( ( ( k     X * , , , , , , @       b ",
"5       $ , , , , , , $       S ( ( ] ,.2.2.*.( ( ( p                     S ( ( ] >.2.2.=.) ( ( k     X * , , , , , , @     X M ",
"5       $ , , , , , , $       S ( ( ] ,.2.2.*.( ( ( p                     S ( ( ] >.2.2.=.) ( ( k     X * , , , , , , @     X M ",
"5       * 2 2 2 , , , $       m W W / -.<.<.&.' ` ` n < < < < < < < < < < J ` ` | ;.<.<.%.~ W W u     X * , , 2 2 2 2 @     X B ",
"5       5 f f s 2 , , $       % ; ; y / } } O.:.:.:.*.$.$.$.$.$.$.$.$.$.$.-.:.:.-. .} } R 1 ; ; @     X * , , 5 d f f *     o L ",
"5       0 j j f 2 , , $             - E ( ( X.1.2.2.2.2.2.2.2.2.2.2.2.2.2.2.2.2.,.} ( ( F .           X * , , 5 g j j :     o P ",
"5       0 j j f 2 , , $             - E ( ( X.1.2.2.2.2.2.2.2.2.2.2.2.2.2.2.2.2.,.} ( ( F .           X * , , 5 g j j :     o P ",
"5       0 j j f 2 , , $             @ Z H H ! ......#.-.-.-.-.-.-.-.-.-.-.+.....{ T H H z             X * , , 5 g j j :     o P ",
"5       0 j j f 2 , , $               o o o o + + @ F _ _ _ _ _ _ _ _ _ _ l + + + o o o X             X = 2 , 5 g j j :     o P ",
"5       0 j j f 2 , , $                             S ( ( ( ( ( ( ( ( ( ( p                           X = 2 , 5 g j j :     o P ",
"5       e j j f 2 , , $                             S ( ( ( ( ( ( ( ( ( ( p                           X * , , 5 g j j :     o P ",
":       0 j j d * @ @ @ $ $ $ o                     q l l l l l l l l l l ;             X # $ $ $ $ $ # @ @ @ , f j j :     . M ",
"$       0 j j s O     O , , , O                                                         O = , , , , , = X     * f j j :       x ",
"$       0 j j s O     O , , , O                                                         O = , , , , , = X     * f j j :       x ",
"*     X e j j s O     O = = = @ o o o                                                   @ 2 2 2 > = = * X     * f j j : .     v ",
"e * * * t j j s O       o o o 4 s s r : * * #                                     & * * 2 s f f = o o X       * f j j 5 = * = L ",
"t , , , t j j s O             5 j j f 2 , , $                                   X * , , 7 g j j =             * f j j e , , 2 U ",
"t , , , t j j s O             5 j j f 2 , , $                                   X * , , 7 g j j =             * f j j e , , 2 U ",
"r * * * r j j s # o o X       , e e e 2 , , * o o o @ $ $ $ $ $ $ $ $ $ $ @ o o O = , , 2 e e e $       o o O = f j j 5 * * = I ",
"7       e j j f 2 = = $         . . o = , , = = = = r f f f f f f f f f f 5 = = = , , , & X . .         * = = 5 g j j :     O P ",
"5       0 j j f 2 , , $             X * , , , , , , t j j j j j j j j j j e , , 2 , , , $             X * , , 5 g j j :     o P ",
"5       0 j j f 2 , , $             X * , , , , , , t j j j j j j j j j j e , , 2 2 , , $             X * , , 5 g j j :     o P ",
"%       0 j j f t r r 2               O @ @ $ , , , 5 e e r f j j f e e e 2 , , = # @ @ O             o 5 r r s h j j :     o P ",
"        0 j j j j j j 0                     O , , , , 2 , 2 f j j a , , , , , , = X                   o s j j j j j j :     o P ",
"        0 j j j j j j 0                     O , , , , , , 2 f j j a , , , , , , = X                   o s j j j j j j :     o P ",
"      . e j j j j j j e o o o               O , , , = = = 2 s f f r = = = = , , = X             X o o @ s j j j j j j :     O P ",
"* * * * t j j j j j j f t t t %             O , , , # o o o @ @ @ O o o o & , , = X             2 t t s f j j j j j j 5 * * : I ",
", , , , t j j j j j j j j j h *             O , , , O                     $ , , = X             5 j j j j j j j j j j e , , 2 U ",
", , , , t j j j j j j j j j h *             O , , , O                     $ , , = X             5 j j j j j j j j j j e , , 2 U ",
"2 , , , t j j j j j j j j j h 4 # # # o o o # , , , O                     $ , , = O o o O # # # e j j j j j j j j j j e , , 2 U ",
"t , , , t j j j j j j j j j j f f f s 2 = = = , , , O                     $ , , , = = = 5 f f f g j j j j j j j j j j e , , 2 U ",
"t , , , t j j j j j j j j j j j j j f 2 , , , , , , O                     $ , , , , , , 7 g j j j j j j j j j j j j j e , , 2 U ",
"t , , , t j j j j j j j j j j j j j f 2 , , , , , , O                     $ , , , , , , 7 g j j j j j j j j j j j j j e , , 2 U ",
"t , , , t j j j j j j j j j j j j j f t r r r r r r 5 4 4 4 4 4 4 4 4 4 4 e r r r r r r s h j j j j j j j j j j j j j e , , 2 U ",
"t , , , t j j j j j j j j j j j j j j j j j j j j j j j j j j j j j j j j j j j j j j j j j j j j j j j j j j j j j j e , , 2 U ",
"t , , , t j j j j j j j j j j j j j j j j j j j j j j j j j j j j j j j j j j j j j j j j j j j j j j j j j j j j j j e , , 2 U ",
"t = = = t j j j j j j j j j j j j j j j j j j j j j j j j j j j j j j j j j j j j j j j j j j j j j j j j j j j j j j 8 = = 2 I ",
"e o o o e j j j j j j j j j j j j j j j j j j j j j j j j j j j j j j j j j j j j j j j j j j j j j j j j j j j j j j , o o @ P ",
"5       0 j j j j j j j j j j j j j j j j j j j j j j j j j j j j j j j j j j j j j j j j j j j j j j j j j j j j j j :     o P ",
"5       0 j j j j j j j j j j j j j j j j j j j j j j j j j j j j j j j j j j j j j j j j j j j j j j j j j j j j j j :     o P ",
"4       4 s s s g j j j j j j j j j j j j j j j j j j j j j j j j j j j j j j j j j j j j j j j j j j g s s s s s s s *     o L ",
"$       & 2 2 5 f j j j j j j j j j j j j j j j j j j j j j j j j j j j j j j j j j j j j j j j j j j f 5 2 2 2 2 2 2 @     X N "
};
