/* XPM */
static char *_4aeab747e5a4f508ad2eab63685a9d4OK37sVywmIpJcHvm[] = {
/* columns rows colors chars-per-pixel */
"64 64 199 2 ",
"   c #23131E",
".  c #2A171D",
"X  c #27181F",
"o  c #2C1C1F",
"O  c #301C1D",
"+  c #2F201F",
"@  c #33211E",
"#  c #3B231C",
"$  c #281621",
"%  c #2B1A23",
"&  c #311620",
"*  c #331D26",
"=  c #321E28",
"-  c #342521",
";  c #3E2622",
":  c #362822",
">  c #3A2C23",
",  c #35212A",
"<  c #3A242D",
"1  c #3C2B2D",
"2  c #3D2C32",
"3  c #46221F",
"4  c #442A1C",
"5  c #4B2E1B",
"6  c #4E311C",
"7  c #50311B",
"8  c #58371A",
"9  c #5C391A",
"0  c #623D19",
"q  c #571F25",
"w  c #472A26",
"e  c #423424",
"r  c #4A3A22",
"t  c #463628",
"y  c #4C322E",
"u  c #523E22",
"i  c #432B32",
"p  c #492A36",
"a  c #4F2E39",
"s  c #502F39",
"d  c #493035",
"f  c #4F3439",
"g  c #523936",
"h  c #53343B",
"j  c #5B373E",
"k  c #553A3D",
"l  c #5A3B3F",
"z  c #6C2529",
"x  c #703925",
"c  c #7D3C21",
"v  c #613C3F",
"b  c #664019",
"n  c #684219",
"m  c #6E4B1D",
"M  c #704F1D",
"N  c #6E521F",
"B  c #73551F",
"V  c #4B4027",
"C  c #544324",
"Z  c #5B4B24",
"A  c #53452A",
"S  c #564728",
"D  c #594F32",
"F  c #6B4625",
"G  c #724723",
"H  c #724927",
"J  c #655425",
"K  c #6A5827",
"L  c #6D5B26",
"P  c #755524",
"I  c #765921",
"U  c #785D22",
"Y  c #665631",
"T  c #6B622D",
"R  c #756427",
"E  c #7B6324",
"W  c #7C6926",
"Q  c #7C6628",
"!  c #766829",
"~  c #7D6A28",
"^  c #7F742D",
"/  c #676130",
"(  c #696231",
")  c #716D32",
"_  c #7B7834",
"`  c #5F3840",
"'  c #663F45",
"]  c #5F4043",
"[  c #644244",
"{  c #6E4446",
"}  c #664348",
"|  c #6B4649",
" . c #6E4C4D",
".. c #704647",
"X. c #724749",
"o. c #744B4D",
"O. c #794C4C",
"+. c #7F5844",
"@. c #7B514B",
"#. c #765452",
"$. c #7C5353",
"%. c #7D5957",
"&. c #8E2C2E",
"*. c #8D3727",
"=. c #903828",
"-. c #A63230",
";. c #AB3232",
":. c #9C4D2E",
">. c #895B2B",
",. c #94512E",
"<. c #925F2C",
"1. c #A84233",
"2. c #826E27",
"3. c #816D2A",
"4. c #86732B",
"5. c #867529",
"6. c #87782A",
"7. c #897B2C",
"8. c #826933",
"9. c #8B7534",
"0. c #827C32",
"q. c #8A7A39",
"w. c #90773E",
"e. c #875B48",
"r. c #815554",
"t. c #815957",
"y. c #855D5A",
"u. c #885E5C",
"i. c #8A6147",
"p. c #94754E",
"a. c #86645C",
"s. c #8B625E",
"d. c #8D685B",
"f. c #926456",
"g. c #9A7558",
"h. c #865E61",
"j. c #8F6561",
"k. c #8C6C63",
"l. c #906762",
"z. c #936D66",
"x. c #936769",
"c. c #9F6F69",
"v. c #8E7066",
"b. c #937265",
"n. c #9F7B67",
"m. c #99746C",
"M. c #9C7A6E",
"N. c #9E7B72",
"B. c #A3776A",
"V. c #A57D6C",
"C. c #A67575",
"Z. c #A97F72",
"A. c #A97878",
"S. c #8C802F",
"D. c #848236",
"F. c #8D8331",
"G. c #8F8A35",
"H. c #868538",
"J. c #888638",
"K. c #8B8A39",
"L. c #928C35",
"P. c #9B8A3A",
"I. c #8F903A",
"U. c #949137",
"Y. c #959238",
"T. c #949339",
"R. c #97963A",
"E. c #98973B",
"W. c #97993C",
"Q. c #9A9C3D",
"!. c #908541",
"~. c #978348",
"^. c #9C9744",
"/. c #9C9A48",
"(. c #A1A04A",
"). c #A58466",
"_. c #A08072",
"`. c #A6847F",
"'. c #AD817A",
"]. c #B59D79",
"[. c #BBA77E",
"{. c #A88881",
"}. c #B08380",
"|. c #B68D87",
" X c #B69F90",
".X c #BE9A91",
"XX c #BEA785",
"oX c #BAA594",
"OX c #C09E94",
"+X c #C3A296",
"@X c #C8A99A",
"#X c #CBBA97",
"$X c #CAB09F",
"%X c #CEB4A2",
"&X c #D0B6A4",
"*X c #D2B9A6",
"=X c #D5BEA9",
"-X c #D7C1AB",
";X c #D8C2AC",
/* pixels */
"` ` o.j.j.j.j.j.j.j.j.j.j.j.j.j.j.j.j.j.j.j.j.j.j.j.j.j.j.u.O.O.O.$.s.j.j.j.j.j.j.j.j.j.j.j.j.j.j.j.j.j.j.j.j.j.j.j.j.j.u.' ` ` ",
"j j o.j.j.j.j.j.j.j.j.j.j.j.j.j.j.j.j.j.j.j.j.j.j.j.j.j.j.u.O.O.O.$.s.j.j.s.s.s.s.s.s.s.s.s.j.j.j.j.j.j.j.j.j.j.j.j.j.j.u.' j j ",
"a a | j.j.j.j.j.j.j.j.j.j.j.j.j.j.j.j.j.j.j.j.j.j.j.j.j.j.y.{ ' ' o.s.j.j.o.i i i i i i i  .j.j.j.j.j.j.j.j.j.j.j.j.j.j.y.j a a ",
"p p } j.j.j.j.j.j.j.j.j.j.j.j.j.j.j.j.j.j.j.j.j.j.j.j.j.j.y.' ` ` | s.j.j.} X             ` j.j.j.j.j.j.j.j.j.j.j.j.j.j.y.h p p ",
"p p } j.j.j.j.j.j.j.j.j.j.j.j.j.j.j.j.j.j.j.j.j.j.j.j.j.j.y.' ` ` | s.j.j.} X             ` j.j.j.j.j.j.j.j.j.j.j.j.j.j.y.h p p ",
"p p } s.s.s.j.j.j.j.j.j.j.j.l.l.l.l.l.l.l.j.u.y.y.y.y.y.y.$.j j j } t.y.y.] X     X . . . l y.y.y.s.l.l.l.j.j.j.j.s.s.s.t.h p p ",
"p p ` $.$.$.y.j.j.j.j.j.j.j.m.M.M.M.M.M.M.z.f < < < < < < < * * * * < < < *       # 8 8 8 w < < < %.M.M.M.z.j.j.s.r.$.$.O.h p p ",
"p p j O.O.O.t.j.j.j.j.j.j.j.m._._._._._._.v.<                                     4 n n n 4     X #._._.N.z.j.j.s.$.O.O.X.s p p ",
"p p j O.O.O.t.j.j.j.j.j.j.j.m._._._._._._.v.<                                     4 n n n 4     X #._._.N.z.j.j.s.$.O.O.X.s p p ",
"p p j { { { O.t.t.t.t.t.t.t.k.v.v.v.v.v.v.a.i @ @ - - - - - - - - - - - - - @ @ @ 5 n n n 5 . . .  .v.v.v.a.y.y.t.O.X.X.{ a p p ",
"p p < * * * * , , , , , , , , < < < < < < 1 K R R ! D.H.H.H.H.H.H.H.H.H.H.0.R R R P n n n 0 9 9 9 w < < < a h h h h s s s p p p ",
"p p ,                                     o R 5.5.7.R.Q.Q.Q.Q.Q.Q.Q.Q.Q.Q.L.5.5.5.U n n n n n n b #     X < p p p p p p p p p p ",
"p p ,                                     o R 5.5.7.R.Q.Q.Q.Q.Q.Q.Q.Q.Q.Q.L.5.5.5.U n n n n n n b #     X < p p p p p p p p p p ",
"p p ,       o - - - : > > > - - - @ X     + ! 7.7.S.R.Q.Q.Q.Q.Q.Q.W.R.R.R.L.5.5.5.E m m m n n n b #     $ p h h h h h h s p p p ",
"p p ,       r W W W 0.K.K.K.^ W W R >     - 0.R.R.E.Q.Q.Q.Q.Q.Q.Q.U.7.6.6.6.5.5.5.5.2.2.2.B n n b #     $ | y.y.y.O.X.X.{ s p p ",
"p p ,       C 5.5.5.L.Q.Q.Q.F.5.5.~ >     - D.Q.Q.Q.Q.Q.Q.Q.Q.Q.Q.U.5.5.5.5.5.5.5.5.5.5.5.I n n b #     $  .j.j.s.$.O.O.X.s p p ",
"p p ,       C 5.5.5.L.Q.Q.Q.F.5.5.~ >     - D.Q.Q.Q.Q.Q.Q.Q.Q.Q.Q.U.5.5.5.5.5.5.5.5.5.5.5.I n n b #     $  .j.j.s.$.O.O.X.s p p ",
"p p i < < < A L L L 0.T.T.U.F.7.7.6.S e e r ) _ _ 0.L.T.T.T.T.T.T.L.5.5.5.5.5.5.5.5.5.5.5.I n n b #     $  .j.j.s.r.$.$.O.h p p ",
"p p ' y.y.y.l o o o J 6.6.6.L.W.W.R.T.I.I.D.> % % > ! 6.6.6.6.6.6.5.5.5.5.5.5.5.5.5.5.5.5.I n n b #     $  .j.j.j.s.s.s.t.h p p ",
"p p } j.j.j.l       Z 5.5.5.L.Q.Q.Q.Q.Q.Q.K.>     - R 5.5.5.5.5.5.5.5.5.5.5.5.5.5.5.5.5.5.I n n b #     $  .j.j.j.j.j.j.y.h p p ",
"p p } j.j.j.l       Z 5.5.5.L.Q.Q.Q.Q.Q.Q.K.>     - R 5.5.5.5.5.5.5.5.5.5.5.5.5.5.5.5.5.5.I n n b #     $  .j.j.j.j.j.j.y.h p p ",
"s s | j.j.j.l       C E E E F.L.L.U.W.Q.Q.T.D V V S >.<.<.>.K J J L E E E W 5.5.5.R J J J G c c c 3     $  .j.j.j.j.j.j.y.j s s ",
"j j o.j.j.j.l       5 n n n E 5.5.6.T.Q.Q.Q.R.R.R.P.1.;.;.&.& X X # b n n B 5.5.5.Z X X X z ;.;.-.q     $  .j.j.j.j.j.j.u.' j j ",
"` ` o.j.j.j.l       5 n n n E 5.5.6.T.Q.Q.Q.Q.Q.Q.P.1.;.;.&.&     # 0 n n B 5.5.5.Z       z ;.;.;.q     $  .j.j.j.j.j.j.u.' ` ` ",
"` ` o.j.j.j.l       5 n n n E 5.5.6.T.Q.Q.Q.Q.Q.Q.P.1.;.;.&.&     # 0 n n B 5.5.5.Z       z ;.;.;.q     $  .j.j.j.j.j.j.u.' ` ` ",
"` ` o.j.j.j. .f f f y 5 5 6 m E E E F.L.L.L.W.Q.Q.P.:.:.:.,.u r r Z E Q Q 4.F.F.F.T r r r x =.=.*.w     $  .j.j.j.j.j.j.u.' ` ` ",
"` ` o.j.j.j.j.j.j.j.h     X 7 n n n W 5.5.6.R.Q.Q.R.7.5.5.5.5.5.5.S.W.Q.Q.Q.Q.Q.Q.L.5.5.5.I n n b #     $  .j.j.j.j.j.j.u.' ` ` ",
"` ` o.j.j.j.j.j.j.j.h     X 7 n n n W 5.5.6.R.Q.Q.R.7.5.5.5.5.5.5.S.W.Q.Q.Q.Q.Q.Q.L.5.5.5.I n n b #     $  .j.j.j.j.j.j.u.' ` ` ",
"` ` o.j.j.j.j.j.j.j.h     X 7 n n n W 5.5.6.R.Q.Q.R.7.5.5.5.5.5.5.S.W.Q.Q.Q.Q.Q.Q.L.5.5.5.I n n b #     $  .j.j.j.j.j.j.u.' ` ` ",
"h h | j.j.j.j.j.j.j.h     X # 4 4 4 u C C Z 0.L.L.F.6.5.5.5.5.5.5.S.W.Q.Q.Q.Q.Q.Q.T.L.L.L.3.I I I 4     $  .j.j.j.j.j.j.y.` h h ",
"p p } j.j.j.j.j.j.j.h                     o R 5.5.5.5.5.5.5.5.5.5.S.W.Q.Q.Q.Q.Q.Q.Q.Q.Q.Q.F.5.5.5.r     $  .j.j.j.j.j.j.y.h p p ",
"p p } j.j.j.j.j.j.j.h                     o R 5.5.5.5.5.5.5.5.5.5.S.W.Q.Q.Q.Q.Q.Q.Q.Q.Q.Q.F.5.5.5.r     $  .j.j.j.j.j.j.y.h p p ",
"p p } j.j.j.j.j.j.j.h                     o R 5.5.5.5.5.5.5.5.5.5.S.W.Q.Q.Q.Q.Q.Q.Q.Q.Q.Q.F.5.5.5.r     $  .j.j.j.j.j.j.y.h p p ",
"p p } j.j.j.j.j.j.j.h     X r Z Z Z Y / / ( p.g.g.p.9.5.5.2.I I I U Q Q Q Q Q Q Q F.Q.Q.Q.T.L.L.G.V     $  .j.j.j.j.j.j.y.h p p ",
"p p } j.j.j.j.j.j.j.h     X J 5.5.6.T.Q.Q.^.V.A.A.B.9.5.5.W n n n n n n n n n n n Q Q.Q.Q.Q.Q.Q.W.A     $  .j.j.j.j.j.j.y.h p p ",
"p p } j.j.j.j.j.j.j.h     X J 5.5.6.T.Q.Q.^.V.A.A.B.9.5.5.W n n n n n n n n n n n Q Q.Q.Q.Q.Q.Q.W.A     $  .j.j.j.j.j.j.y.h p p ",
"p p } j.j.l.j.s.s.s.h X X o J 5.5.6.T.Q.Q.^.V.A.A.V.q.7.7.3.m n n n n n n n n n n 3.Q.Q.Q.Q.Q.Q.W.A X X $  .s.s.s.j.j.j.y.h p p ",
"h h  .j.j.l. .d d d D ) ) ) D.L.L.L.W.Q.Q./.XX@X@X+XXX[.[.].V.n.n.n.n.n.n.b.f.f.f.g.).).).~.F.F.S.J 7 7 6 y d d h %.j.j.y.' h h ",
"` ` o.j.j.j.l       ( Q.Q.Q.Q.Q.Q.Q.Q.Q.Q.(.#X;X;X;X;X;X;X*XOX.X.X.X.X.X.X|.A.A.A.A.A.A.A.p.5.5.5.B n n 0 #     % #.j.j.u.' ` ` ",
"` ` o.j.j.j.l       ( Q.Q.Q.Q.Q.Q.Q.Q.Q.Q.(.#X;X;X;X;X;X;X*XOX.X.X.X.X.X.X|.A.A.A.A.A.A.A.p.5.5.5.B n n 0 #     % #.j.j.u.' ` ` ",
"` ` o.j.j.j.l       ( Q.Q.Q.Q.W.W.W.T.T.T./.#X;X;X;X;X;X;X*X+XOXOX.X.X.X.X|.A.A.A.A.A.A.A.p.4.4.2.B n n 0 #     % #.j.j.u.' ` ` ",
"` ` o.j.j.j.l       ( Q.Q.Q.L.7.7.6.S t t D oX;X;X;X;X;X;X=X*X&X&X$X.X.X.X|.A.A.A.A.A.A.A.i.M M m n n n 0 #     % #.j.j.u.' ` ` ",
"` ` o.j.j.j.l       ( Q.Q.Q.F.5.5.~ >     1 oX;X;X;X;X;X;X;X;X;X;X&X.X.X.X|.A.A.A.A.A.A.A.e.n n n n n n 0 #     % #.j.j.u.' ` ` ",
"` ` o.j.j.j.l       ( Q.Q.Q.F.5.5.~ >     1 oX;X;X;X;X;X;X;X;X;X;X&X.X.X.X|.A.A.A.A.A.A.A.e.n n n n n n 0 #     % #.j.j.u.' ` ` ",
"` ` o.j.j.j.] % % % / K.K.K.4.W ! R t = = d oX;X;X;X;X;X;X-X=X=X=X%X.X.X.X|.A.A.A.A.A.A.A.e.0 0 0 0 0 0 9 ; % % < $.j.j.u.' ` ` ",
"` ` o.j.j.j.y.$.$.$.g > > > : - - > $.j.j.m.$X;X;X;X;X;X;X*X+X+X+XOX.X.X.X|.A.A.A.A.A.A.A.} O O O O O O * [ $.$.%.s.j.j.u.' ` ` ",
"` ` o.j.j.j.j.j.j.j.h             % h.A.A.'.%X;X;X;X;X;X;X*XOX.X.X.X.X.X.X|.A.A.A.A.A.A.A.[             $  .j.j.j.j.l.l.u.' ` ` ",
"` ` o.j.j.j.j.j.j.j.h             % h.A.A.'.%X;X;X;X;X;X;X*XOX.X.X.X.X.X.X|.A.A.A.A.A.A.A.[             $  .j.j.j.j.j.l.u.' ` ` ",
"` ` o.j.j.j.j.j.j.j.h       + : : 1 a.B.B.Z.@X&X&X%XoXoXoX X{.`.`.`.`.`.`.`.A.A.A.C.c.c.c.[ @ @ @ o     $  .j.j.j.j.j.j.u.' ` ` ",
"` ` o.j.j.j.j.j.j.j.h     X / J.J.J.q.9.9.w.'.}.}.N.k 2 2 2 2 < < < < < < } C.A.A.f.H H H P R R R e     $  .j.j.j.j.j.j.u.' ` ` ",
"` ` o.j.j.j.j.j.j.j.h     o ) Q.Q.W.7.5.5.9.B.A.A.x.,                     k C.A.A.e.n n n U 5.5.5.r     $  .j.j.j.j.j.j.u.' ` ` ",
"` ` o.j.j.j.j.j.j.j.h     o ) Q.Q.W.7.5.5.9.B.A.A.x.,                     k C.A.A.e.n n n U 5.5.5.r     $  .j.j.j.j.j.j.u.' ` ` ",
"` ` o.j.j.j.y.$.$.$.g - - > _ Q.Q.W.F.7.7.q.d.j.j.%.i = = = = = = = = = = k j.j.j.+.m m m E 5.5.5.u O O * [ $.$.$.s.j.j.u.' ` ` ",
"` ` o.j.j.j.] % * % Z ! ! ~ G.Q.Q.Q.W.E.E.K.t * = < [ { { { { { { { { { { j = = = C 2.2.2.5.5.5.5.N 0 0 9 ; % % < $.j.j.u.' ` ` ",
"` ` o.j.j.j.l       Z 5.5.5.L.Q.Q.Q.Q.Q.Q.K.>     * { O.O.O.O.O.O.O.O.O.O.j X     C 5.5.5.5.5.5.5.B n n 0 #     % #.j.j.u.' ` ` ",
"` ` o.j.j.j.l       Z 5.5.5.L.Q.Q.Q.Q.Q.Q.K.>     * { O.O.O.O.O.O.O.O.O.O.j X     C 5.5.5.5.5.5.5.B n n 0 #     % #.j.j.u.' ` ` ",
"` ` o.j.j.j.| i i i Y 8.8.8.q.!.!.!.!.!.!.q.y < < i ..O.O.O.O.O.O.O.O.O.O.v < < < S 8.8.8.8.8.8.8.P F F F y i i p %.j.j.u.' ` ` ",
"` ` o.j.j.j.s.u.u.u.$.O.O.O.@.@.@.@.@.@.@.@.O.X.X.O.O.O.O.O.O.O.O.O.O.O.O.O.X.X.X.O.O.O.O.O.O.O.O.O.O.O.O.t.u.u.u.j.j.j.u.' ` ` ",
"` ` o.j.j.j.j.j.j.j.r.O.O.O.O.O.O.O.O.O.O.O.O.O.O.O.O.O.O.O.O.O.O.O.O.O.O.O.O.O.O.O.O.O.O.O.O.O.O.O.O.O.O.u.j.j.j.j.j.j.u.' ` ` ",
"` ` o.j.j.j.j.j.j.j.r.O.O.O.O.O.O.O.O.O.O.O.O.O.O.O.O.O.O.O.O.O.O.O.O.O.O.O.O.O.O.O.O.O.O.O.O.O.O.O.O.O.O.u.j.j.j.j.j.j.u.' ` ` ",
"` ` o.j.j.j.j.j.j.j.y.r.r.r.r.r.r.r.r.r.r.r.r.r.r.r.r.r.r.r.r.r.r.r.r.r.r.r.r.r.r.r.r.r.r.r.r.r.r.r.r.r.r.s.j.j.j.j.j.j.u.' ` ` ",
"` ` o.j.j.j.j.j.j.j.j.j.j.j.j.j.j.j.j.j.j.j.j.j.j.j.j.j.j.j.j.j.j.j.j.j.j.j.j.j.j.j.j.j.j.j.j.j.j.j.j.j.j.j.j.j.j.j.j.j.u.' ` ` ",
"` ` o.j.j.j.j.j.j.j.j.j.j.j.j.j.j.j.j.j.j.j.j.j.j.j.j.j.j.j.j.j.j.j.j.j.j.j.j.j.j.j.j.j.j.j.j.j.j.j.j.j.j.j.j.j.j.j.j.j.u.' ` ` ",
"` ` o.j.j.j.j.j.j.j.j.j.j.j.j.j.j.j.j.j.j.j.j.j.j.j.j.j.j.j.j.j.j.j.j.j.j.j.j.j.j.j.j.j.j.j.j.j.j.j.j.j.j.j.j.j.j.j.j.j.u.' ` ` "
};
