/* XPM */
static char *Untitled_design__6_1713541778[] = {
/* columns rows colors chars-per-pixel */
"64 64 164 2 ",
"   c #23131E",
".  c #29161F",
"X  c #261520",
"o  c #281621",
"O  c #2C1A23",
"+  c #331B23",
"@  c #391C21",
"#  c #311F28",
"$  c #362125",
"%  c #3C2326",
"&  c #36222A",
"*  c #3D252B",
"=  c #3F282F",
"-  c #372730",
";  c #382630",
":  c #3D2C34",
">  c #432123",
",  c #4B2524",
"<  c #41262C",
"1  c #442A2E",
"2  c #4A292A",
"3  c #502625",
"4  c #54352F",
"5  c #422631",
"6  c #442C33",
"7  c #492A36",
"8  c #422F38",
"9  c #4E2D38",
"0  c #512F39",
"q  c #4B3137",
"w  c #44333B",
"e  c #4B343B",
"r  c #4C393F",
"t  c #5B3A33",
"y  c #54333C",
"u  c #5A373F",
"i  c #573A3E",
"p  c #5C3B3F",
"a  c #62302B",
"s  c #70352A",
"d  c #77382B",
"f  c #7C3A2D",
"g  c #6F483A",
"h  c #7D433A",
"j  c #754C3D",
"k  c #7A513D",
"l  c #4D3A42",
"z  c #593740",
"x  c #563A41",
"c  c #5F3840",
"v  c #633C42",
"b  c #5F4043",
"n  c #55444A",
"m  c #5A4449",
"M  c #5A494E",
"N  c #5F4D52",
"B  c #644345",
"V  c #694247",
"C  c #664648",
"Z  c #694448",
"A  c #624A4E",
"S  c #6E494C",
"D  c #724749",
"F  c #744A4B",
"G  c #794C4C",
"H  c #664E55",
"J  c #734E50",
"K  c #645457",
"L  c #695457",
"P  c #655558",
"I  c #6A535A",
"U  c #6C5A5D",
"Y  c #755151",
"T  c #7C5454",
"R  c #7E5856",
"E  c #725C61",
"W  c #756566",
"Q  c #7D606C",
"!  c #7D6B6C",
"~  c #7F7070",
"^  c #833D2E",
"/  c #8D412F",
"(  c #8B4734",
")  c #82473C",
"_  c #8A483C",
"`  c #964631",
"'  c #9A4B34",
"]  c #80543F",
"[  c #90533B",
"{  c #9D5138",
"}  c #A2583D",
"|  c #865941",
" . c #8D5E44",
".. c #965143",
"X. c #9A5947",
"o. c #815554",
"O. c #825856",
"+. c #845B59",
"@. c #885E5C",
"#. c #935D55",
"$. c #A65F41",
"%. c #976548",
"&. c #9E6A4A",
"*. c #87605D",
"=. c #8B615E",
"-. c #97655A",
";. c #9A6E5F",
":. c #A66041",
">. c #A96545",
",. c #AB6947",
"<. c #A46E4D",
"1. c #AD734E",
"2. c #B1734E",
"3. c #A77156",
"4. c #AC7757",
"5. c #A0705C",
"6. c #A97459",
"7. c #B27650",
"8. c #B67B53",
"9. c #806367",
"0. c #8F6561",
"q. c #8C6862",
"w. c #81646E",
"e. c #906762",
"r. c #926A63",
"t. c #917067",
"y. c #96756A",
"u. c #99756B",
"i. c #9B786D",
"p. c #826671",
"a. c #866A72",
"s. c #8A6E75",
"d. c #8C7077",
"f. c #8D7279",
"g. c #8E7B7B",
"h. c #937376",
"j. c #9E7D70",
"k. c #91767B",
"l. c #93787D",
"z. c #A08072",
"x. c #967D80",
"c. c #987E81",
"v. c #958181",
"b. c #9B8485",
"n. c #998A87",
"m. c #9F8688",
"M. c #9B8B89",
"N. c #A38B8C",
"B. c #A79190",
"V. c #AC9694",
"C. c #AB9995",
"Z. c #AF9998",
"A. c #B09A97",
"S. c #B19C99",
"D. c #B5A29E",
"F. c #B8A39F",
"G. c #B7A7A1",
"H. c #B9A5A1",
"J. c #BCACA5",
"K. c #C1AFA8",
"L. c #C3B2AB",
"P. c #C7B8B0",
"I. c #CBBBB2",
"U. c #D4C4BB",
/* pixels */
"7 7 7 7 9 7 0 0 0 0 0 0 0 0 y c u v u 0 0 0 0 0 0 0 v v v v v v v v c c c v v v v v v v v v v v v z 9 9 9 9 9 9 7 9 7 7 9 7 7 7 ",
"7 7 7 7 7 7 7 7 7 7 7 7 7 7 9 z u v u 5 7 7 7 7 7 7 0 v c c c c c c v v c c c c u v u u u v u u s z 7 7 7 7 7 7 7 7 7 7 7 7 7 7 ",
"7 7 7 7 7 7 7 7 7 7 7 7 7 7 9 u v u u 7 7 7 7 5 7 7 u c v c v v c v v v v v c c v v p u u u v u c 9 7 7 7 7 7 7 7 7 7 7 7 7 7 7 ",
"7 7 7 9 0 y 0 u u z y z z z c v V V v u z z u z z z v v S v v v v v v v v v v v v p 0 y 0 0 0 0 9 5 5 5 5 z z z z 9 z 9 9 7 7 7 ",
"7 7 7 c F F D O.@.*.@.@.@.@.*.*.9.@.@.@.@.@.9.@.@.@.@.*.0.@.@.0.=.=.=.=.0.=.=.=.=.b o o o o o o X X X X # T *.*.+.G F F v 7 7 9 ",
"7 7 7 v G G G @.0.0.0.0.0.0.e.e.0.0.e.e.0.0.-.0.e.e.0.0.=.e.0.0.0.0.0.0.e.0.0.0.=.B                   X # E 0.0.@.G G G v 7 7 7 ",
"7 7 7 v G G G @.0.0.0.0.0.0.0.0.0.0.0.0.0.0.0.0.0.0.0.0.e.0.0.0.0.0.0.0.0.0.0.0.=.B               X X X # +.0.0.@.G G G v 7 7 7 ",
"7 7 7 B o.o.o.@.0.0.0.0.0.0.0.0.0.0.0.0.0.0.0.0.0.0.0.0.e.0.0.0.0.0.0.0.0.@.H v C A n n n N P L H v l M x Z C C S o.o.o.Z 7 7 7 ",
"7 7 7 S 0.0.0.0.0.0.0.0.0.0.0.0.0.0.0.0.0.0.0.0.0.0.0.0.0.0.0.0.0.0.0.0.0.S O o   N V.B.V.K.U.I.I.S.V.V.x.; X X ; @.0.0.J 7 7 7 ",
"7 7 7 S 0.0.0.0.0.0.0.0.0.0.0.0.0.0.0.0.0.0.0.0.0.0.0.0.0.0.0.0.0.0.0.0.q.J o     N C.C.V.L.U.U.U.H.V.V.v.-     ; @.0.0.J 7 7 7 ",
"7 7 7 S 0.0.0.0.0.0.0.0.0.0.0.0.0.0.0.0.0.0.0.0.0.0.0.0.0.0.0.0.0.0.0.0.0.S O     K V.C.V.L.U.U.U.D.C.V.b.-     ; @.0.0.J 7 7 7 ",
"7 7 7 S 0.0.0.0.0.0.0.0.0.0.0.0.0.0.0.0.0.0.0.0.0.0.0.0.0.0.0.0.0.*.c z x M ! ~ ~ l.V.Z.V.F.K.K.J.K.L.J.C.:     < @.0.0.Y y 0 0 ",
"7 7 7 S 0.0.0.0.0.0.0.0.0.0.0.0.0.0.0.0.0.0.0.0.0.0.0.0.e.=.e.-.0.R #     n I.U.U.L.V.V.Z.V.V.V.A.P.U.U.J.: X   ; @.0.0.T v c c ",
"7 7 7 S 0.0.0.0.0.0.0.0.e.0.0.0.0.0.0.0.0.0.0.0.0.0.0.0.e.e.e.e.0.R #     n P.U.U.L.V.Z.V.V.V.A.A.P.U.U.J.: X X ; @.0.0.T v c c ",
"7 7 7 S 0.0.0.0.0.0.0.0.0.0.0.0.0.0.0.0.0.0.0.0.0.0.0.0.0.=.=.=.*.T - O O M P.U.U.K.V.C.Z.V.A.V.A.I.U.U.J.:     < @.0.0.G c c c ",
"7 7 7 S 0.0.0.0.0.0.0.0.0.0.0.0.0.0.0.0.0.0.0.0.0.0.0.0.0.*.i 8 7 x g.n.n.M.B.B.N.V.V.V.V.V.V.V.A.I.U.U.J.:     * @.0.0.T c c c ",
"7 7 7 S =.0.0.0.0.0.0.0.0.0.0.0.0.0.0.0.0.0.0.0.0.0.0.0.0.+.*   X 8 K.U.I.K.c.l.l.m.V.V.V.Z.V.V.A.P.U.U.J.:     * *.0.0.T c c c ",
"7 7 7 S 0.0.0.0.0.0.0.0.0.0.0.0.0.0.0.0.0.0.0.0.0.0.0.0.0.+.-   X 8 J.U.U.K.x.l.l.m.V.V.V.V.V.Z.A.I.U.U.J.6     * +.0.0.T c c c ",
"7 7 7 S 0.0.0.0.0.0.0.0.0.0.=.+.+.+.+.+.+.+.*.0.0.0.@.+.+.R 6 & # l J.I.I.K.c.l.k.m.V.V.V.V.S.S.S.J.L.L.C.w O O 8 *.0.0.T u u u ",
"7 7 7 S 0.0.0.0.0.0.0.0.0.0.R 6 & & & & & & b 0.0.=.x & & : ! l.x.x.c.N.N.c.l.l.l.l.c.c.c.D.I.I.L.U w w r L R R R 0.0.0.J 9 9 9 ",
"7 7 7 S 0.0.0.0.0.0.0.0.=.q.T O             i q.0.*.9     # x.Z.C.B.x.x.l.l.l.l.l.l.l.l.l.H.U.U.P.n     & R 0.0.0.0.0.0.J 7 7 7 ",
"7 7 7 S 0.0.0.0.0.0.0.0.e.q.T #             i 0.0.0.q X   # k.Z.C.B.x.l.l.l.l.k.l.l.l.l.g.G.U.U.L.n     # R 0.0.0.0.0.0.J 7 7 7 ",
"7 7 7 S 0.0.0.0.0.0.=.R R T S 2 % * $       e T T T x ; ; 8 x.c.N.N.x.k.l.l.l.l.l.c.N.m.b.C.D.D.C.n & & : +.=.0.0.0.e.0.J 7 7 7 ",
"7 7 7 S 0.0.0.0.0.0.*.6 O O 2 %.<.<.k o     o + O # H a.a.p.p.p.p.p.f.l.l.l.k.l.l.V.I.P.U.W - & : S +.+.+.=.q.-.0.0.e.e.J 7 7 7 ",
"7 7 7 S 0.0.0.0.0.0.+.;     * <.8.8.| .             I l.d.d.p.E Q p.k.x.k.x.k.k.l.C.U.U.U.E     o J 0.0.0.0.0.0.0.0.0.0.F 7 7 7 ",
"7 7 7 S 0.0.0.0.0.0.O.&     < <.8.8.| .             I l.x.x.p.w.E p.f.x.x.k.k.x.l.Z.U.U.U.U     o J 0.0.0.0.0.0.0.0.0.0.J 7 7 7 ",
"7 7 7 S 0.0.0.0.0.0.+.&     > <.8.8.%., > , 6 w w e E s.s.s.w.Q p.w.s.d.s.x.c.c.b.b.M.M.M.L 6 6 9 R 0.0.0.0.0.0.0.0.0.0.J 0 0 9 ",
"7 7 7 S 0.0.0.0.0.0.+.&     * <.8.8.>.` ` ` #.h.f.f.a.Q Q Q Q Q Q Q Q Q w.d.B.V.V.W O o O A =.=.0.0.0.0.0.0.0.0.0.0.0.0.T v z c ",
"7 7 7 v r.e.0.0.0.0.+.&     < <.8.8.,.' ` ` -.k.l.l.a.w.Q Q Q Q Q Q Q Q Q s.B.Z.V.E       m 0.0.0.0.0.0.0.0.0.0.0.0.0.0.T c c c ",
"7 7 z v 0.e.0.0.0.0.+.&     < <.8.8.,.' ` ` #.l.l.l.p.Q Q Q Q Q Q Q Q Q Q s.B.V.C.E       b 0.0.0.0.0.0.0.0.0.0.0.0.0.0.T v c c ",
"l 7 7 J 0.0.0.0.0.0.+.&     & <.8.8.1.:.:.:.-.a.s.s.p.w.Q Q Q Q Q Q p.a.s.Q E I U M i i y R 0.0.0.0.0.0.0.0.0.0.0.0.0.0.G c c c ",
"5 7 7 v 0.0.e.0.0.0.+.&     5 <.8.8.8.8.8.8.;.Q E p.E p.Q Q Q Q Q Q d.x.x.E O X   y 0.0.0.0.0.0.0.0.0.0.0.0.0.0.0.0.0.0.T c c c ",
"7 7 7 S 0.0.0.0.0.0.+.&     * <.8.8.8.8.8.8.-.w.Q Q Q Q Q Q w.p.Q p.x.f.x.E o     y q.0.0.0.0.0.0.0.0.0.0.0.0.0.0.0.0.0.R c c c ",
"7 7 7 S 0.0.0.0.0.q.+.%     1 <.8.8.8.8.8.8.r.w.Q Q Q Q Q Q Q E Q p.s.x.f.E o X   y -.0.0.0.0.0.0.0.0.0.0.0.0.0.0.0.0.q.T c c c ",
"7 7 7 S 0.0.0.0.0.0.=.S C C C t t t k 7.8.8.4.5.r.5.0.Q Q w.s.s.s.Q x l l x A B A Y 0.0.0.0.0.0.0.0.0.0.0.0.0.0.0.0.0.0.T c c c ",
"7 7 7 S 0.0.0.0.0.0.e.e.=.=.T O     4 8.8.8.8.8.8.8.e.Q Q Q d.l.x.Q - X X 5 *.0.0.0.0.0.0.0.0.0.0.0.0.0.0.0.0.0.0.0.0.0.T c c c ",
"7 7 7 S 0.0.0.0.0.0.0.0.0.0.Y O     4 2.8.8.8.8.8.8.e.w.9.w.d.k.l.! &   X 5 *.0.0.0.0.0.0.0.0.0.0.0.0.0.0.0.0.0.0.0.0.0.T z v v ",
"7 7 7 S 0.0.0.0.0.0.0.0.0.0.R O     4 1.7.7.8.8.8.8.r.w.w.9.h.h.h.Q #   X ; R @.+.q.0.0.0.0.0.0.0.0.0.0.0.0.0.0.0.0.0.0.Y v v u ",
"7 7 7 S 0.0.0.0.0.0.0.0.0.0.R O     , { { { >.8.8.8.7.6.6.3.X.....) +     o & = * b 0.0.0.0.0.0.0.0.0.0.0.0.0.0.0.0.0.0.o.c u u ",
"7 7 7 S 0.0.0.0.0.0.0.0.0.0.R O     > ` ` ` $.8.8.8.8.8.8.2.} ` ` ^ +             y 0.0.0.0.0.0.0.0.0.0.0.0.0.0.0.0.0.=.o.u u v ",
"7 7 7 S 0.0.0.0.0.0.0.0.0.0.R O     , ` ` ` $.7.8.8.8.8.8.2.{ ` ` ^ +             r -.=.0.0.0.0.0.0.0.0.0.0.0.0.0.0.0.0.o.c c c ",
"7 7 7 S 0.0.0.0.0.0.0.R R R S % @ + , ^ ^ ^ [ <.&.&.4.8.8.2.} { ' ( 2 % % +       y q.q.0.0.0.0.0.0.0.0.0.0.0.0.0.0.0.0.G v c c ",
"7 7 7 S 0.0.0.0.0.0.+.5 # + < f ^ ^ s @ + + + @ @ % | 8.8.8.2.2.1.1.<.<.<.k .     r -.0.0.0.0.0.0.0.0.0.0.0.0.0.0.0.0.0.T c c c ",
"7 7 7 S 0.0.0.0.0.q.+.&     @ / ` ` s .       X     | 8.8.8.8.8.8.8.8.8.8.%..     y 0.0.0.0.0.0.0.0.0.0.0.0.0.0.0.0.0.0.T c c c ",
"7 7 7 S 0.0.0.0.0.0.+.&     @ ^ ` ` s     X X     X ] 8.8.8.8.8.8.8.8.8.8. ..     y =.e.e.e.-.0.0.0.0.0.0.0.0.0.0.0.0.0.T c c c ",
"7 7 7 S 0.0.0.R F F S 2 > > 3 s d d a * @ * * & % * g  . . . . . . . . . .j < % % b @.=.@.@.@.@.@.=.0.0.0.0.0.0.0.0.0.0.T c c c ",
"7 7 7 S 0.0.*.8 o o + ^ ^ ` f @ o . < D D D D D F D 2 . . O . O . . + O . 1 Z F D F G G G G G G o.@.0.0.0.0.0.0.0.0.0.0.T c c c ",
"7 7 7 S 0.0.=.7     + ^ ` ` ^ +     < F G G G G G G 6                     * F G G G G G G G G G G @.0.0.0.0.0.0.0.0.0.0.T c c c ",
"7 7 7 S 0.0.@.7 X   + ^ ` ` ^ o     > D G G G G G G <                     < D G G G G G G G G G G @.0.0.0.0.0.0.0.0.0.0.o.c c c ",
"7 7 7 S 0.0.0.c 6 6 9 f _ _ h 0 7 7 y G G G G G G G y 7 2 7 7 7 6 5 7 2 7 0 G G G G D G G G G G G o.@.o.+.@.0.0.0.0.0.0.o.c c c ",
"7 7 7 S 0.0.0.T G G G G G G G G G G G G G G G G G G G G G G G G G G G G G G G G G G G G G G G G G G G G o.+.0.0.0.0.0.0.o.c c c ",
"7 7 7 S 0.0.0.o.G G G G G G G G G G G G G G G G G G G G G G G G G G G G G G G G G G G G G G G G G G G G o.@.0.0.0.0.0.0.G c c c ",
"7 7 7 S 0.0.0.o.G G G G G G G G G G G G G G G G G G G G G G G G G o.G G G G G G G G G G G G G G G G o.v o.#.0.0.0.0.0.0.T z c c ",
"7 7 7 S 0.0.=.@.O.+.+.O.+.+.+.O.+.O.+.+.O.@.O.O.O.O.+.O.O.+.+.O.O.O.O.O.O.O.+.+.O.O.O.O.+.+.+.+.@.o.@.o.@.0.0.0.0.0.0.0.G z z 9 ",
"7 7 7 S 0.0.0.0.e.e.0.0.0.0.-.0.0.0.0.0.e.e.0.0.-.0.0.0.e.e.0.0.0.0.-.e.0.0.0.0.0.e.r.-.0.0.0.0.0.0.0.0.0.0.0.0.0.0.0.0.J 7 5 7 ",
"7 7 7 S 0.0.0.0.0.e.0.0.0.0.0.0.0.0.0.0.0.0.0.0.e.e.0.0.e.e.0.0.0.0.e.e.0.0.0.0.0.e.e.e.0.0.0.0.0.0.0.0.0.0.0.0.0.0.0.0.J 7 7 7 ",
"7 7 7 D 0.@.0.=.0.0.0.0.0.0.0.e.0.0.0.0.0.0.e.e.0.0.0.0.0.0.e.e.e.e.e.e.e.e.e.e.e.e.e.e.e.e.0.e.e.e.e.e.e.0.0.0.0.=.#.@.J 7 7 7 ",
"7 7 7 v o.o.o.@.0.0.0.0.0.0.e.u.i.j.j.i.i.j.t.0.0.0.0.0.0.0.u.i.i.u.i.j.i.i.i.i.i.i.i.i.i.i.i.i.i.i.j.j.h.e.0.0.@.o.o.o.v 9 7 7 ",
"7 7 7 v G G G @.0.0.0.0.e.e.e.j.z.z.z.z.j.z.y.0.0.0.0.0.0.e.j.j.j.z.z.z.z.z.j.j.z.z.z.z.z.z.z.z.j.j.j.z.j.e.0.0.@.v o.G v 7 7 7 ",
"7 7 5 v G G G +.0.0.0.0.e.e.e.j.z.z.z.j.z.z.y.0.0.0.0.0.0.e.j.j.j.j.z.z.z.z.z.z.z.z.z.z.z.z.z.z.z.j.j.j.j.e.0.=.@.o.o.G v 7 7 7 ",
"7 7 7 c D D D T +.O.+.+.@.@.*.y.y.u.y.y.y.t.q.@.@.+.@.*.*.0.t.u.u.u.y.y.i.i.u.u.u.u.y.h.u.u.y.u.i.y.y.y.e.@.+.O.@.v v v v 7 7 7 ",
"7 7 7 9 9 9 0 z z l z z 0 0 z v Z Z v x z x z 0 z 0 c v v v v S B Z Z Z Z Z Z B Z Z C Z Z Z Z B V v x z z z z z z z c z 9 7 7 7 ",
"7 7 7 7 7 7 7 7 7 7 7 7 7 7 9 c c c z 7 7 7 7 7 7 7 z c c v c c c c c c c c c c c c c c c c c c c 9 7 7 7 7 7 7 7 7 7 7 7 7 7 7 ",
"7 7 7 7 7 7 7 7 7 7 7 7 7 7 9 c c c 0 7 7 7 7 7 7 7 z c c c c c c c c c c c c v c c c c c c c c c 7 7 7 7 7 7 7 7 7 7 7 7 7 7 7 "
};
