/* XPM */
static char *Untitled_design__8_1713542615[] = {
/* columns rows colors chars-per-pixel */
"64 64 136 2 ",
"   c #23131E",
".  c #261520",
"X  c #291721",
"o  c #2D1A23",
"O  c #331E25",
"+  c #331F28",
"@  c #362124",
"#  c #3B2427",
"$  c #3D2826",
"%  c #332328",
"&  c #3A242C",
"*  c #3E282F",
"=  c #412B26",
"-  c #41272A",
";  c #432A2D",
":  c #482C2C",
">  c #473028",
",  c #4E352E",
"<  c #52322F",
"1  c #442730",
"2  c #432B32",
"3  c #492A36",
"4  c #4D2D38",
"5  c #502F39",
"6  c #423433",
"7  c #4F3132",
"8  c #4D3338",
"9  c #523236",
"0  c #593635",
"q  c #5B3834",
"w  c #54323B",
"e  c #5B363E",
"r  c #55393D",
"t  c #5B3A3F",
"y  c #5B412E",
"u  c #50433D",
"i  c #644533",
"p  c #654833",
"a  c #684B32",
"s  c #6C4239",
"d  c #764A3D",
"f  c #5F3840",
"g  c #633C43",
"h  c #5B4142",
"j  c #644346",
"k  c #6B4245",
"l  c #664548",
"z  c #6A4348",
"x  c #664848",
"c  c #6C4B4B",
"v  c #714646",
"b  c #724941",
"n  c #784B45",
"m  c #704548",
"M  c #734C4E",
"N  c #7A4C4C",
"B  c #625548",
"V  c #6D534F",
"C  c #675B4C",
"Z  c #7C504F",
"A  c #744E50",
"S  c #755352",
"D  c #7C5453",
"F  c #735C54",
"G  c #7E5957",
"H  c #7D5D59",
"J  c #76644C",
"K  c #746555",
"L  c #7D725B",
"P  c #84623A",
"I  c #8B663D",
"U  c #96713F",
"Y  c #855343",
"T  c #885544",
"R  c #8B5844",
"E  c #82524C",
"W  c #8D594D",
"Q  c #925C47",
"!  c #925C4C",
"~  c #825655",
"^  c #845856",
"/  c #855C5A",
"(  c #895E5B",
")  c #9B624E",
"_  c #997240",
"`  c #85635E",
"'  c #8B615E",
"]  c #82785F",
"[  c #A1664F",
"{  c #A5694F",
"}  c #AC6F4F",
"|  c #A47B44",
" . c #A47149",
".. c #AE724F",
"X. c #B1764F",
"o. c #B47D4F",
"O. c #A96B50",
"+. c #8F6561",
"@. c #906762",
"#. c #936B65",
"$. c #8A7E64",
"%. c #977269",
"&. c #98746A",
"*. c #9D7C6F",
"=. c #9E7E70",
"-. c #B08547",
";. c #B6834D",
":. c #BA844E",
">. c #B58948",
",. c #BD8B4E",
"<. c #8C8265",
"1. c #918869",
"2. c #A08072",
"3. c #ADA57C",
"4. c #C08E4E",
"5. c #C3934E",
"6. c #C7984E",
"7. c #C79950",
"8. c #C89B53",
"9. c #C9A15A",
"0. c #CCAA65",
"q. c #CDAD6A",
"w. c #D0B776",
"e. c #D0B877",
"r. c #D1BA7B",
"t. c #B4AD82",
"y. c #BEB888",
"u. c #C3BD8C",
"i. c #D3C284",
"p. c #D2C68B",
"a. c #D5C98D",
"s. c #CBC591",
"d. c #D4CD94",
"f. c #D5CF98",
"g. c #D7D198",
"h. c #D8D39A",
/* pixels */
"3 3 3 3 3 3 4 4 4 4 3 4 4 4 f f g g 5 5 4 4 4 4 4 4 f g g g g g f g g f g g g g g g g g g f g g f 4 4 4 4 4 4 4 3 4 3 4 3 3 3 8 ",
"3 3 3 3 3 3 3 3 3 3 3 3 3 3 5 f g e 5 3 3 3 3 3 3 4 f f f f f f f f f f f f f f f f f f f f f f r 3 3 3 3 3 3 3 3 3 3 3 3 3 3 4 ",
"3 3 3 3 3 3 3 3 3 3 3 3 3 3 w f g e 8 3 3 3 3 3 3 3 f f f f f f f f f f f f f f f f f f f f f g e 3 3 3 3 3 3 3 3 3 3 3 3 3 3 4 ",
"3 3 3 e f f g k l l z z z z c A M M c z z z z z z g 1 1 1 1 1 * 1 f A M M A M M M M M A M M M M c z z z z z z z f f f f 4 3 3 8 ",
"3 3 4 m N N N +.+.+.+.+.+.+.+.+.+.+.+.+.+.+.+.+.+.G o . .         r +.+.+.+.+.+.+.+.+.+.+.+.+.+.@.+.+.+.+.+.+.+.~ N N m f 3 3 4 ",
"3 3 4 m N N D ' +.+.+.+.+.+.+.+.+.@.+.+.+.+.+.+.+.D o .           r +.+.+.+.+.+.+.+.+.+.+.+.+.+.+.+.+.+.+.+.+.+.~ N N N 4 3 3 4 ",
"3 3 4 m N N D ' +.+.+.+.+.+.+.+.' +.+.+.+.' +.+.+.S + .     .     r +.+.+.+.+.+.+.+.+.+.+.+.+.+.+.+.+.+.+.+.+.+.~ N M m w 3 3 5 ",
"3 3 4 D ^ ^ ( +.+.+.+.+.+.+.c 4 8 8 8 8 8 8 9 6 8 h $.1.1.1.1.1.1.F 8 8 8 A +.+.+.+.+.+.+.+.+.+.+.+.+.+.+.+.+.+.( ^ / G f 3 3 4 ",
"3 3 4 G +.+.+.+.+.+.+.+.+.+.f                     6 u.h.h.h.h.h.h.]       x @.+.+.+.+.+.+.+.+.+.+.+.+.+.+.+.+.+.@.@.+.( f 3 3 3 ",
"3 3 f / +.+.+.+.+.+.+.+.+.+.f                     7 u.h.h.h.h.h.h.]       l +.+.+.+.+.+.+.+.+.+.+.+.+.+.+.+.+.+.@.@.@.' f 3 3 3 ",
"3 3 8 / +.+.+.+.+.+.+./ ' K h % % % % % % % % % # u u.h.h.h.h.h.h.<.% % % x / ` ' ' +.+.+.+.+.+.+.+.+.+.+.@.+.+.' +.+.( f 1 3 3 ",
"f f f / +.+.+.+.+.+.A * * & K 3.3.3.3.3.3.3.3.3.3.t.d.h.h.h.h.h.h.u.3.3.3.C & & 2 D +.+.+.+.+.+.+.+.+.+.+.+.+.+.@.@.+.( f f f f ",
"f f f G +.+.+.+.+.+.B X .   L f.h.h.h.h.h.h.h.h.h.h.h.h.h.h.h.h.h.h.h.h.f.C     o S +.+.+.+.+.+.+.+.+.+.+.+.+.+.+.+.@.' z f f f ",
"f f g / +.+.+.+.+.+.c X .   L h.h.h.h.h.h.h.h.h.h.h.h.h.h.h.h.h.h.h.h.h.f.C     o S +.+.+.+.+.+.+.+.+.+.+.+.+.+.+.+.+.' z f f g ",
"f f g / +.+.+.G G G x * * * <.h.h.h.h.h.h.h.a.a.a.a.h.h.h.h.h.h.h.d.a.p.p.J $ $ : c G D ^ ' +.+.+.+.+.+.+.+.+.+.+.+.@.' z f f g ",
"f f g / +.+.D & + + B y.u.y.s.h.h.h.h.h.h.d.0.9.9.0.d.h.h.h.h.h.h.r.9.9.9.,.-.-.| , % O 2 / +.+.+.+.+.+.+.+.+.+.+.+.@.+.g f f g ",
"g f g / +.+.D +     B f.h.h.h.h.h.h.h.h.h.d.9.6.6.9.a.h.h.h.h.h.g.w.6.6.6.6.6.6.>.>     % G @.@.+.+.+.+.+.+.+.+.+.+.+.' z f f g ",
"f f g / +.+.D o     B s.h.h.h.h.h.h.h.h.h.d.9.6.6.9.a.h.h.h.h.h.g.w.6.6.6.6.6.6.>.>     % ^ +.' +.+.+.+.+.+.+.+.+.+.+.' z f f g ",
"f f f G +.+.D o     B f.h.h.h.h.h.h.p.i.i.r.9.6.6.9.r.u.a.i.i.i.i.q.6.6.6.6.6.6.,.i : : 9 c N M S +.+.+.+.+.+.+.+.+.+.' g f f f ",
"3 3 f S +.+.H o     B d.h.h.h.h.h.h.q.9.9.8.6.6.6.6.8.7.8.8.8.8.8.7.6.6.6.6.6.6.5...[ [ R @ X X 3 ' +.+.+.+.+.+.+.+.+.' f 3 3 4 ",
"3 3 f G +.+.S o     B d.h.h.h.h.h.g.q.6.6.6.6.6.6.6.6.6.6.6.6.6.6.6.6.6.6.6.6.6.5.X.{ } Q @     3 / +.+.+.+.+.+.+.+.+.` f 3 3 f ",
"3 & f G +.+.G o     B d.h.h.h.h.h.d.q.6.6.6.6.6.6.6.6.6.6.6.6.6.6.6.6.6.6.6.6.6.5.X.{ { Q @     2 ' +.+.+.+.+.+.+.+.+.` f * * 3 ",
"3 3 f S +.+.H X     p w.r.r.r.r.r.e.9.6.6.6.6.6.6.6.6.6.6.4.:.:.:.:.:.:.:.:.:.:.o.} } } Q O     2 / @.+.+.@.+.+.+.+.+./ f f f 3 ",
"3 3 f H +.+.D o     q 4.6.6.6.6.6.6.6.6.6.6.6.6.6.6.6.6.6.4.O.O.O.O.O.O.O.O.O.O.} O.O.O.Q O     2 ' +.+.+.+.+.+.+.+.` S f * & f ",
"3 3 f A +.+.H o     f :.6.6.6.6.6.6.6.6.6.6.6.6.6.6.6.6.6.:.} } O.O.O.O.O.O.O.O.O.O.O.O.Q O     * ` +.+.+.+.+.+.+.+.+.' f 3 3 f ",
"3 3 f G +.+.S +     y ,.6.6.6.6.6.6.6.6.6.6.6.6.6.6.6.6.6.4.{ } O.O.O.O.O.O.O.O.O.O.O.O.Q O     2 H +.+.+.+.+.+.+.+.+.' f 3 3 3 ",
"f f f S +.+.H o     r X.o.o.4.6.6.6.6.6.7.5.;.o.o.:.5.6.6.4.,.,.:.o.O.O.O.O.O.O.O.o.4.:.o.I P P b r 6 f c +.+.+.+.+.+.' f f f f ",
"f f g H +.+.S o     9 { O.} o.6.6.6.6.6.7.5.X.O.O...5.6.6.6.6.7.6.:.O.O.O.O.O.O.O.4.6.6.6.6.6.6.U o     f +.+.+.+.+.+.' f f f f ",
"f f g / +.+.D o     < [ { } o.6.6.6.6.6.6.5.X.{ O...5.7.5.7.7.7.7.:.O.O.O.O.O.O.O.4.6.6.6.6.6.6.U       f +.+.+.+.+.#.' g f f g ",
"f f g / +.+.D o     < { O.O.o.5.5.5.5.5.5.5.X.O.O...4.5.5.5.5.5.5.o.O.O.O.O.O.O.O.4.6.4.5.6.6.7._ %   O f ' H H ' +.' ' g g f g ",
"f f f / +.+.G o     , { O.O.} X.X...X...X.X.O.O.O.O.X.X.X.X.X.X.X.} O.O.O.O.O.O.{ X.X.X.o.5.7.7.-.T R R g * * * A ' +.' g f f g ",
"f f f H +.+.D +     < [ O.O.{ } } } } { O.O.O.O.O.O.O.O.O.O.O.O.O.O.O.O.O.O.O.O.O.O.} { X.5.5.7.,.} } } g . . . g +.#.#.g f f g ",
"g f g / +.+.D o     < [ O.O.O.O.O.O.O.O.O.O.O.O.O.O.O.O.O.O.O.O.O.O.O.O.O.O.O.O.O.O.O.O...5.5.6.,.O.O.O.s       l +.+.' z g e g ",
"f g g ( +.+.G & + + 0 ) [ [ [ ) [ [ { O.O.O.O.O.O.O.O.O.O.O.O.O.O.O.O.O.O.{ [ [ [ { [ [ O.,.5.5.:.O.O.O.s       l +.+.' z t f g ",
"f f g / +.+.' / ~ ~ D E E E E E E E ) O.O.O.O.O.O.O.O.O.O.O.O.O.O.O.O.O.{ W E E E N Z E E O.......O.O.O.s       j +.+.' g f f g ",
"f f g / +.+.+.+.+.+./ N N N N N N N ) O.O.O.O.O.O.O.O.O.O.O.O.O.O.O.O.O.O.W N N N n N N E { O.O.O.O.O.O.s       j +.+.' m f f g ",
"f f g / +.@.+.+.+.+.( N N N N N N N ! O.O.O.O.O.O.} O.O.} } O.O.O.O.O.O.{ W N N N N N n E { { } O.O.O.O.s       g +.@.' z f f g ",
"f f g / +.+.+.+.+.+.( D D ~ N N N N ! ) ) ) ) ) ! ! T T Y Y Y Y Y Q ) [ ) n g g g g g g k ! [ ) ) ) ) [ b 2 ; 2 A @.@.' z g f g ",
"f g g / +.+.+.+.+.+.' +.' ' ~ N N N E N N N N E E v O X o o   O X 9 N N N 3 . . X X X X O v N Z Z N N N ~ ( / / +.+.@.( g f f g ",
"f g g / +.+.+.+.+.+.+.@.+.+.^ N N N N N N N N n n g O             4 N N n 1             O k N N N N N N ~ @.@.+.+.+.@.( m f f g ",
"f f g ( +.+.+.+.+.+.+.+.+.+./ N N N N N N N N N N g O             3 N n n 1 .           O k N N N N N N ^ +.+.+.+.+.+.' z g f g ",
"f f g / +.+.+.+.+.+.+.+.+.+./ ~ ~ ~ ~ ~ ~ Z f f 0 0 i a a i q q q 0 w w w 0 0 q q q q q q 9 w 9 g ~ ~ ~ ( +.+.+.+.+.@.' g g g g ",
"f f g / +.+.+.+.+.+.+.+.+.+.+.+.' +.+.+.' / +     = >.6.6.:.O.O.{ s       d O.O.O.O.{ { Q O     1 ( +.+.+.+.+.+.+.+.+.' g f f g ",
"f f g / +.+.+.+.+.+.+.+.+.+.+.+.+.+.+.+.@./ +     = >.6.6.4.O.O.} s     . d O.O.O.O.O.O.Q O     3 ( +.+.+.+.+.+.+.+.+.( g f f g ",
"f f g ( +.+.+.+.+.+.+.+.+.+.+.+.+.+.+.+.@./ &     - >.6.5.4.O.O.{ s       d O.O.O.O.O.O.! O     2 ' +.+.+.+.+.+.@.+.+.' m g f g ",
"f f g ( +.+.+.+.+.+.+.+.+.+.+.+.+.+.+.+.' / &     #  .o.o.X.O.O.O.Y w w w n W W W ! W W E k j g c ' +.+.+.+.+.+.+.+.+.' z g f g ",
"f f g ( +.+.+.+.+.+.+.+.+.+.+.+.+.+.+.+.+./ &     # ) O.O.O.O.O.O.! N N N n N N N N N n Z ' @.@.+.+.+.+.+.+.+.+.+.+.+.' g f f g ",
"f f g ( +.+.+.+.+.+.+.+.+.+.+.+.+.+.+.+.+.G &     - ! O.O.O.O.O.O.! N N N N N N N N N N Z ' @.@.+.+.+.+.+.+.+.+.+.+.@.+.g f f g ",
"f f g ( +.+.+.+.+.+.+.+.+.+.+.+.+.+.+.+.+.H * X X * ( O.O.[ { O.O.! N N N N N N N N N N D ' +.+.+.+.+.+.+.+.+.+.+.+.+.' z f f g ",
"f f g / +.+.+.+.+.+.+.+.+.+.+.+.+.+.+.+.+.+.A A A A E ~ E ~ E E E ^ ( ( ( ( ( ( ( ( ( ( ( +.+.+.+.+.+.+.+.+.+.+.+.+.+.' z g f g ",
"f f g ( +.+.+.+.+.+.+.+.+.+.+.+.+.+.+.+.+.+.+.+.+.' N N N N N N N ^ +.+.@.+.+.+.@.+.+.+.@.@.+.+.+.+.+.+.+.+.+.+.+.+.+.' g f f g ",
"f f g / +.+.+.+.+.+.+.+.+.+.+.+.+.+.+.+.+.+.+.+.+.' N N N N N N N ^ +.+.+.+.+.+.+.+.+.+.+.+.+.+.+.+.+.+.+.+.+.+.+.+.+.' g f f g ",
"f f f G ' +.+.+.+.+.+.+.+.+.+.+.+.+.+.+.+.+.+.+.+.' E N E Z N Z N / +.+.+.+.+.+.+.+.+.+.+.+.+.+.+.+.+.+.+.+.+.+.+.+.+.' m f f f ",
"4 4 f / +.+.+.+.+.+.+.+.+.+.+.+.+.+.+.+.+.+.+.+.+.+.' ' ' ' ' ' ' ' +.+.+.+.+.+.+.+.+.+.+.+.+.+.+.+.+.+.+.+.+.+.+.+.+.+.f 4 4 5 ",
"3 3 f / +.+.+.+.+.+.+.+.+.+.+.+.+.+.+.+.+.+.+.+.+.+.+.+.+.+.+.+.+.+.+.+.+.+.+.+.+.+.+.+.+.+.+.@.+.+.+.+.+.+.+.+.+.+.+./ f 3 3 5 ",
"3 3 3 G +.+.+.+.+.+.+.+.+.+.+.+.+.+.+.+.+.+.+.+.+.+.+.+.+.+.+.+.+.+.+.+.+.+.+.+.+.+.+.+.+.+.+.@.+.+.+.+.+.+.+.+.+.+.+./ f 3 3 5 ",
"3 3 f ( ' ' ' #.+.+.+.+.+.+.+.#.#.#.#.#.#.#.+.+.+.+.+.+.+.+.#.%.#.#.&.%.#.#.#.#.#.#.#.#.#.#.#.#.#.#.#.#.+.+.+.+./ +.( ^ f 3 3 4 ",
"3 1 f g A A A ' +.+.+.+.+.+.#.2.=.*.=.=.=.*.#.+.+.+.+.+.+.%.=.=.=.=.=.=.=.=.=.=.=.=.=.=.=.=.=.=.=.=.=.=.%.+.+.+.~ A N M w 3 3 5 ",
"3 3 4 g A N D ' +.+.+.+.+.+.%.2.2.2.2.2.2.=.+.+.+.+.+.+.+.#.=.=.=.=.=.2.2.=.=.=.2.2.=.=.2.2.2.2.2.2.2.2.%.+.+.+.~ N N N w 3 3 5 ",
"3 3 f g N N D ` +.+.+.+.+.+.%.2.2.2.2.2.2.=.#.+.+.+.+.+.+.#.=.=.=.=.=.2.2.=.=.=.2.2.=.=.2.2.2.2.2.2.2.2.&.+.+.+.~ M N m w 3 3 5 ",
"3 3 3 f f g g g A z A g A A G ` H H H G H S S g A c A D D G / ` ` ' ` / @.D V V V V V V S H K +.+.H H H S A A A z g g g 5 3 3 5 ",
"3 3 3 3 3 3 f 3 3 3 f 3 3 3 f f f f f * f 3 f 3 f 3 f f f f f f f f f f g &             o f f f w 3 3 3 3 3 3 3 3 3 3 3 3 3 3 5 ",
"3 3 3 3 3 3 3 3 3 3 3 3 3 3 f f f f f 3 & 3 3 3 1 * f f f f f f f f f f f &             o f f f f 3 3 3 3 3 3 3 3 3 3 3 3 3 3 5 ",
"3 3 3 3 3 3 3 3 3 3 3 3 3 3 3 f f f 3 3 3 3 3 3 3 f f f f f f f f f f f f &             o 4 f f w 3 3 3 3 3 3 3 3 3 3 3 3 3 3 5 "
};
