/* XPM */
static char *f451cd8522d046c9be756f1e81ca244dDlRsSIeMYcYT3fMa[] = {
/* columns rows colors chars-per-pixel */
"64 64 40 1 ",
"  c #492A36",
". c #4C2C37",
"X c #4F2E38",
"o c #502F39",
"O c #53303A",
"+ c #54313B",
"@ c #56333C",
"# c #57343C",
"$ c #5A363E",
"% c #5C363E",
"& c #5E383F",
"* c #5F3840",
"= c #633B41",
"- c #633C42",
"; c #653D43",
": c #673E44",
"> c #693F44",
", c #664247",
"< c #6B4145",
"1 c #6D4246",
"2 c #6F4447",
"3 c #674248",
"4 c #684449",
"5 c #6C474B",
"6 c #6E484B",
"7 c #6F494C",
"8 c #704547",
"9 c #724749",
"0 c #734849",
"q c #75494A",
"w c #714A4D",
"e c #754C4F",
"r c #784B4B",
"t c #784B4C",
"y c #794C4C",
"u c #7C4F4F",
"i c #815553",
"p c #8A5F5C",
"a c #8C615E",
"s c #8F6561",
/* pixels */
"s6OO+%**;111111<--=X  o------;1111111111>--*.  X++@>11;+++.  X%*",
"s4  .%**<yyyyyyyyyq+  #qyyyyyyyyyyyyyyyyyyy9o  O**=0yy8**%X  X%*",
"s4  .%**<yyyyyyyyyq+  #qyyyyyyyyyyyyyyyyyyy9o  O**=0yy8**%X  X%*",
"a3  .*==1yyyyyyyyyq$oo$qqqqqqqryyyyyyyyyyyy9O..+==;qyy9===o  X==",
"u=  X2qqqyyyyyyyyyr0991======;qyyyyyyyyyyyyq=%%;qqqryyqqq9+  +9q",
"y*  o9yyyyyyyyyyyyyyyy9=*****;qyyyyyyyyyyyyq=**<yyyyyyyyyq@  +qy",
"y*  o9yyyyyyyyyyyyyyyy9=*****;qyyyyyyyyyyyyq=**<yyyyyyyyyq@  +qy",
"-+  o9yyyyyyyyyyyyyyyyq<<<<<<1ryy91111111111<<<9yyyyyyyyyq@  +qy",
"    o9yyyyyyyyyyyyyyyyyyyyyyyyyyy<*********=qyyyyyyyyyyyyq@  +qy",
"    o9yyyyyyyyyyyyyyyyyyyyyyyyyyy<*********=qyyyyyyyyyyyyq@  +qy",
"X   o9yyyyyyyyyyyyyyyyyyyyyyyyyyy<=========;qyyyyyyyyyyyyq$  @qy",
"9$  o9yyyyyyyyyyyyyyyyyyyyyyyyyyyqqqqqqqqqqqryyyyyyyyyyyyq=$$=qy",
"y*  o9yyyyyyyyyyyyyyyyyyyyyyyyyyyyyyyyyyyyyyyyyyyyyyyyyyyr;**;qy",
"y*  o9yyyyyyyyyyyyyyyyyyyyyyyyyyyyyyyyyyyyyyyyyyyyyyyyyyyr;**;qy",
"i-  o9yyyyyyyyyyyyyyyyyyyyyyyyyyyyyyyyyyyyyyyyyyyyyyyyyyyr;**;qy",
"s4  o9yyyyyyyyyyyyyyyyyyyyyyyyyyyyyyyyyyyyyyyyyyyyyyyyyyyr;**;qy",
"s4  o9yyyyyyyyyyyyyyyyyyyyyyyyyyyyyyyyyyyyyyyyyyyyyyyyyyyr;**;qy",
"s4  o9yyyyyyyyyyyyyyyyyyyyyyyyyyyyyyyyyyyyyyyyyyyyyyyyyyyr;%%;qy",
"sw$$%qyyyyyyyyyyyyyyyyyyyyyyyyyyyyyyyyyyyyyyyyyyyyyyyyyyyq$XX$qy",
"se**=qyyyyyyyyyyyyyyyyyyyyyyyyyyyyyyyyyyyyyyyyyyyyyyyyyyyq@  +qy",
"se**=qyyyyyyyyyyyyyyyyyyyyyyyyyyyyyyyyyyyyyyyyyyyyyyyyyyyq@  +qy",
"se**=qyyyyyyyyyyyyyyyyyyyyyyyyyyyyyyyyyyyyyyyyyyyyyyyyyyyq@  +qy",
"se**=qyyyyyyyyyyyyyyyyyyyyyyyyyyyyyyyyyyyyyyyyyyyyyyyyyyyq@  +qy",
"se**=qyyyyyyyyyyyyyyyyyyyyyyyyyyyyyyyyyyyyyyyyyyyyyyyyyyyq@  +qy",
"se**=qyyyyyyyyyyyyyyyyyyyyyyyyyyyyyyyyyyyyyyyyyyyyyyyyyyyq@  +qy",
"s5oo@0yyyyyyyyyyyyyyyyyyyyyyyyyyyyyyyyyyyyyyyyyyyyyyyyyyyq@  +qy",
"s4  o9yyyyyyyyyyyyyyyyyyyyyyyyyyyyyyyyyyyyyyyyyyyyyyyyyyyq@  +qy",
"s4  o9yyyyyyyyyyyyyyyyyyyyyyyyyyyyyyyyyyyyyyyyyyyyyyyyyyyq@  +qy",
"s4  X100000qryyyyyyyyyyyyyyyyyyyyyyyyyyyyyyyyyyyyyyyyyyyyq@  +qy",
"s4  .%======qyyyyyyyyyyyyyyyyyyyyyyyyyyyyyyyyyyyyyyyyyyyyq@  +qy",
"s4  .%*****=qyyyyyyyyyyyyyyyyyyyyyyyyyyyyyyyyyyyyyyyyyyyyq@  +qy",
"s4  .%*****=qyyyyyyyyyyyyyyyyyyyyyyyyyyyyyyyyyyyyyyyyyyyyq@  +qy",
"s7@@$<111112qyy9<<<qyyyyyyyyyyyyyyyyyyyyyyyyyyyyyyyyyyq<<>O  +qy",
"se**=qyyyyyyyyy2**=9yyyyyyyyyyyyyyyyyyyyyyyyyyyyyyyyyy8**%X  +qy",
"se**=qyyyyyyyyy2**=9yyyyyyyyyyyyyyyyyyyyyyyyyyyyyyyyyy8**%X  +qy",
"se**=qyyyyyyyyy9==;9qqqyyyyyyyyyyyyyyyyyyyyyyyyyyyrqqq2===O..#qy",
"se**=qyyyyyyyyyqqqq;==>ryyyyyyyyyyyyyyyyyyyyyyyyyyq;==>qqq=%%=qy",
"se**=qyyyyyyyyyyyyq;**;ryyyyyyyyyyyyyyyyyyyyyyyyyyq;**:tyr;**;qy",
"se**=qyyyyyyyyyyyyq;**;ryyyyyyyyyyyyyyyyyyyyyyyyyyq;**:tyr;**;qy",
"se**=qyyyyyyyyyyyyr2<<2ryyyyyyyyyyyyyyyyyyyyyyyyyyq;**:tyq&++&qy",
"se**=qyyyyyyyyyyyyyyyyyyyyyyyyyyyyyyyyyyyyyyyyyyyyq;**:tyq@  +qy",
"se**=qyyyyyyyyyyyyyyyyyyyyyyyyyyyyyyyyyyyyyyyyyyyyq;**:tyq@  +qy",
"se**=qyyyyyyyyyyyyyyyyrqqqryyyyyyyyyyyyyyyyyyyyqqqq=**;909+  +qy",
"se**=qyyyyyyyyyyyyyyyy9;=;9yyyyyyyyyyyyyyyyyyyy2====**$OOo   +qy",
"se**=qyyyyyyyyyyyyyyyy9=**9yyyyyyyyyyyyyyyyyyyy1******@      +qy",
"se**=qyyyyyyyyyyyyyyyy9=**9yyyyyyyyyyyyyyyyyyyy1******@      +qy",
"se**=qyyyyyyyyyyyyttyy9=**<229ryyyyyyyyyyyyyyyy9<<<<<<=oooooo%qy",
"se**=qyyyyyyyyyyyyttty9=*****;qyyyyyyyyyyyyyyyyyyyyyyy8******;qy",
"se**=qyyyyyyyyyyyyyyyy9=*****;qyyyyyyyyyyyyyyyyyyyyyyy8******;qy",
"se**=qyyyyyyyyyyyyyqqq2%%%%%%=qyyyyyyyyyyyyyyyyyyyyyyy9===***;qy",
"se**=qyyyyyyyyyyyyq<;;%XXXXXX@qyyyyyyyyyyyyyyyyyyyyyyyq999;**;qy",
"se**=qyyyyyyyyyyyyq;**$      Oqyyyyyyyyyyyyyyyyyyyyyyyyyyr;**;qy",
"se**=qyyyyyyyyyyyyq;**$      Oqyyyyyyyyyyyyyyyyyyyyyyyyyyr;**;qy",
"se**=qyyyyyyyyyq999>;;=$$#X  Oqyyyyyyyyyyyyyyyyyyyyyyyyyyr;**;qy",
"se**=qyyyyyyyyy2===9rrrqqq$  Oqyyyyyyyyyyyyyyyyyyyyyyyyyyr;**;qy",
"se**=qyyyyyyyyy2**=9yyyyyr$  Oqyyyyyyyyyyyyyyyyyyyyyyyyyyr;**;qy",
"se%%=qyyyyyyyyy2**=9yyyyyr$  Oqyyyyyyyyyyyyyyyyyyyyyyyyyyr;%%;qy",
"s5oo+9yyyyyyyyyq999qyyyyyr=$$*qyyyyyyyyyyyyyyyyyyyyyyyyyyq$oo$qy",
"s4  o9yyyyyyyyyyyyyyyyyyyr;**;qyyyyyyyyyyyyyyyyyyyyyyyyyyq@  +qy",
"s4  o9yyyyyyyyyyytyyyyyyyr;**;qyyyyyyyyyyyyyyyyyyyyyyyyyyq@  +qy",
"p,  X199qyyyyyyyyyyyyyyyyr<;;:999qyyyyyyyyyyyyyyyyrq999999+  O99",
"y*  .%==1yyyyyyyyyyyyyyyyyqqq9===2yyyyyyyyyyyyyyyyq;======X  X*=",
"y*  .%**<yyyyyyyyyyyyyyyyyyyy0=**2yyyyyyyyyyyyyyyyq;*****%X  X%*",
"y*  .%**<yyyyyyyyyyyyyyyyyyyy0=**2yyyyyyyyyyyyyyyyq;*****%X  X%*"
};
