/* XPM */
static char *_ef79b99a04c46abc0b5bfde38337b59VmtdKy0D4VFBCToj[] = {
/* columns rows colors chars-per-pixel */
"64 64 62 1 ",
"  c #492A36",
". c #4E2D39",
"X c #512F39",
"o c #54333C",
"O c #5B363E",
"+ c #5D393F",
"@ c #573840",
"# c #5E3840",
"$ c #643D43",
"% c #683F44",
"& c #644246",
"* c #6A4246",
"= c #664448",
"- c #6C4549",
"; c #6E494C",
": c #714748",
"> c #744A4B",
", c #794C4C",
"< c #7D504F",
"1 c #744E50",
"2 c #794F50",
"3 c #7D5352",
"4 c #7D5957",
"5 c #815654",
"6 c #825755",
"7 c #805857",
"8 c #845B57",
"9 c #815958",
"0 c #865A58",
"q c #845C5A",
"w c #875E5C",
"e c #895E5B",
"r c #895F5D",
"t c #82625D",
"y c #86625D",
"u c #8B615E",
"i c #8C625F",
"p c #8D635F",
"a c #866660",
"s c #8F6561",
"d c #8C6962",
"f c #8D6B64",
"g c #8F6A64",
"h c #8F6E65",
"j c #906762",
"k c #916963",
"l c #936B65",
"z c #936C65",
"x c #946D66",
"c c #927067",
"v c #957168",
"b c #977269",
"n c #96766B",
"m c #98736A",
"M c #98746A",
"N c #98776C",
"B c #9A776C",
"V c #9B796E",
"C c #9C7B6F",
"Z c #9D7D6F",
"A c #9F7E71",
"S c #A08072",
/* pixels */
"    ...oooooooo$$$$oooooooO$$$$$$$$$$$$$$$oooooooooooX.......   ",
"               O##O.      o#########$####O                      ",
"               O##O.      o############$#O                      ",
"    .XXooooooooO##Oooooooo#$$$$$$$$$$$$$$$ooooXXX.   ooooXXX.   ",
".  o-::3qqqqqq9*##$4qqqqqqqwwwwwwwwwwwwwwqqqq3:::O  .>qq9>::*.  ",
".  o>,,6ssssssu-##$rsssssssssssssssssssssssss0,,,#  .3ssi<,,-.  ",
".  o>,,6ssssssu-##$rsssssssssssssssssssssssss0,,,#  .3ssi<,,-.  ",
"X  O,330ssssssu-##$rsssssssssssjssssssssssssse333*ooO4ssi633>.  ",
"o  #riisssssssu-##$rssssssssssssssssssssssssssiii6>>>qsssiii4.  ",
"o  #usssssssssu-##$rsssssssssssssssssssssssssssss6,,,essssss7X  ",
"o  #usssssssssu-##$rsssssssssssssssssssssssssssss6,,,essssss7X  ",
"OXX$usssssssssi>**-rsssssssssssssssssssssssssssss6,,,essssss9oXX",
"$##-isssssssssi3,,<usssssssssssssssssssssssssssss6,,,essssss0$##",
"$##-isssssssssi3,,<usssssssssssssssssssssssssssss6,,,essssss0$##",
"$##-isssssssssi3,,<usssssssssssssssssssssssssssss6,,,essssss0$##",
"$##-isssssssssu-++$wsskbMMMMMMlsssbMMMMMMMMMMxsss,++$yMMMMMMs$##",
"$##-issjssssssu#  oqsszASSSSSSbssjVSSSSSSSSSSMsss-  .aSSSSSSc$##",
"$##-isssssssssu#  oqsszASSSSSSbssjVSSSSSSSSSSMsss-  .aSSSSSSc$##",
"$OO-uiiiiiiuuuq#  o9iikVCCVVVVzuuibVVVVCCCCCCbuuu=  .tVVVZZZh$OO",
"O..#3363333-###.  .*--->>>;&&&####&&&=;>>>>>>-###o   #&&=4883o..",
"o  o>,,,,,,O      .O######o          .O######o          .:,,-.  ",
"o  o>,,,,,,O      .O######o          .O######o          .:,,-.  ",
"o  o,,,,,,,$ooooooo$$$$$$$#ooo.   .ooo$$$$$$$#ooooooooooo>,,:.  ",
"o  #quuuuuuq9999990qqqqqqqq999&  .1990qqqqqweq99999999990uuu4.  ",
"o  #usssssssssssssssssssssssss=  .3sssssssssssssssssssssssss7X  ",
"o  #usssssssssssssssssssssssss=  .3sssssssssssssssssssssssss7X  ",
"o..$usssssssssssssssssssssssss-..o4sssssssssssssssssssssssss9o..",
"$OO-isssssssssssssssssssssssss>OO$7sssssssssssssssssssssssss0$OO",
"$##-isssssssssssssssssssssssss>##$7sssssssssssssssssssssssss0$##",
"$##-isssssssssssssssssssssssss>##$7sssssssssssssssssssssssss0$##",
"$##-isssssssssssssssssssssssss2%%*0sssssssssssssssssssssssss0$##",
"$##-isssssssssssssssssssssssss6,,,esssssssssssssssssssssssss0$##",
"$##-isssssssssssssssssssssssss6,,,esssssssssssssssssssssssss0$##",
"$##-isssssssssssssssssssssssss6,,,esssssssssssssssssssssssss0$##",
"$##-isssssssssssssssssssssssss6,,,esssssssssssssssssssssssss0$##",
"$##-isssssssssssssssssssssssss6,,,esssssssssssssssssssssssss0$##",
"$##-isssssssssssssssssssssssss6,,,esssssssssssssssssssssssss0$##",
"$##-isssssssssssssssssssssssss6>>,esssssssssssssssssssssssssq$##",
"$##-issxBBBBBBBBBBBBBBBBBBxsss;OO+6ssjMBBBBBBbsssxBBBBBBBBBBf$##",
"$##-issbSSSSSSSSSSSSSSSSSSMsss=  .3sskCSSSSSSMsssmSSSSSSSSSSc$##",
"$##-issbSSSSSSSSSSSSSSSSSSMsss=  .3sskCSSSSSSMsssmSSSSSSSSSSc$##",
"$##-qrrkBBBnnnnnnnnnBBBBBBzwww&  .3iiiMVVVBBBzwwwgnnnnnnnnBBf$#O",
"$##$****---$#######*------$ooo.  .-3333663---$oooo#######*--*$##",
"$##########X      .O######o      .*,,,,,,:$##o          .O######",
"$##########X      .O######o      .*,,,,,,:$##o          .O######",
"$##$*******#ooo.  .$******$ooooooO>333333,***#ooo.   oooO$$$$###",
"$##-quuuuuurww9o  o7uuuuuurwwwwwwwuiiiiiiiuuu6>>>O  .1wwq,>>:$##",
"$##-isssssssssu#  oqsssssssssssssssssssssssss0,,,#  .3ssi<,,>$##",
"$##-isssssssssu#  oqsssssssssssssssssssssssss0,,,#  .3ssi<,,>$##",
"$##-isssssssssu*OO$qssssssssssssssssssssssssse666*OO+4ssi666,$##",
"$##-isssssssssi3>>,usssssssssssssssssssssssssssss6>>,qssssss0$##",
"$##-isssssssssi3,,<usssssssssssssssssssssssssssss6,,,essssss0$##",
"$##-isssssssssi3,,<usssssssssssssssssssssssssssss6,,,essssss0$##",
"#oo*usssssssssi>**:rsssssssssssssssssssssssssssss6,,,essssss9Ooo",
"o  #usssssssssu-##$rsssssssssssssssssssssssssssss6,,,essssss7X  ",
"o  #usssssssssu-##$rsssssssssssssssssssssssssssss6,,,essssss7X  ",
"o  #usssssssssu-OO$rsssssssssssssssssssssssssssss6,,,essssss4.  ",
"X  O366qssssssu$XX#gBBBBBBxsssssssbBBBBBBBBBBBBBB4%%*9ssi666>.  ",
".  o>,,6ssssssu#  obSSSSSSMssssssjVSSSSSSSSSSSSSS4##$6ssi<,,-.  ",
".  o>,,6ssssssu#  obSSSSSSMssssssjVSSSSSSSSSSSSSS4##$6ssi<,,-.  ",
".  o:>>3wwwwww9O  ofBBBBBBzuuuuuuubVVVVVVVVVVVVVV3OO#3wwq,>>*.  ",
"    ooooooooooo.   @######$*******---------------#...oooooooX   ",
"                          o######################o              ",
".   .XXoOOOOOOOOOOOOOOOOOO$%%%$%%%%%%%%%%%%%%%%%%$OOoXXXXXX.   #"
};
